<svg width="100" height="89" viewBox="0 0 100 89" fill="none" xmlns="http://www.w3.org/2000/svg">
<g clip-path="url(#clip0_1491_215)">
<path d="M94.5098 78.3673H5.4902C2.35294 78.3673 0 80.7301 0 83.8806C0 87.031 2.35294 89.3939 5.4902 89.3939H94.902C98.0392 89.3939 100.392 87.031 100.392 83.8806C100.392 80.7301 97.6471 78.3673 94.5098 78.3673Z" fill="#ED7445"/>
<path d="M57.2567 1.96903C56.8645 0.787611 55.688 0 54.5116 0H44.3155C43.139 0 41.9625 0.787611 41.5704 1.96903L12.5508 84.6681H87.0606L57.2567 1.96903Z" fill="#ED7445"/>
<path d="M36.0793 17.3274L31.7656 30.323H67.4519L62.746 17.3274H36.0793Z" fill="#ECEFF1"/>
<path d="M24.7059 50.8009L20 63.7965H79.6078L74.902 50.8009H24.7059Z" fill="#ECEFF1"/>
</g>
<defs>
<clipPath id="clip0_1491_215">
<rect width="100" height="89" fill="white"/>
</clipPath>
</defs>
</svg>
