<svg width="52" height="52" viewBox="0 0 52 52" fill="none" xmlns="http://www.w3.org/2000/svg">
<g clip-path="url(#clip0_1458_3968)">
<path d="M18.9155 6.34398C17.3861 8.08139 16.7284 10.3204 16.2696 12.5503C15.7282 15.1809 15.303 17.839 14.8809 20.5033C14.0061 26.0092 13.2995 31.5436 12.7611 37.1066C12.4593 40.2204 12.2095 43.3384 12.0117 46.4604C12.0117 46.6837 12.3665 46.8764 12.4981 46.956C12.9315 47.1953 13.3914 47.3832 13.8684 47.5157C14.052 47.5708 15.9668 48.1091 15.9943 47.6779C16.3471 42.1332 16.863 36.6029 17.5421 31.0868C18.2242 25.5809 19.0562 20.075 20.084 14.6364C20.5581 12.1343 21.176 9.53739 22.8981 7.57668C23.1581 7.2708 21.2035 6.57033 21.0414 6.52139C20.5731 6.3619 20.0873 6.25921 19.5945 6.21551C19.3651 6.21551 19.0807 6.16351 18.9155 6.35315V6.34398Z" fill="#608A3D"/>
<path d="M23.5791 42.2883C23.6892 39.0633 24.4476 35.8936 25.8089 32.968C26.3993 31.5864 27.2171 30.3137 28.2285 29.2026C28.4568 28.9721 28.7034 28.7604 28.9657 28.5694C29.0268 28.5235 29.3939 28.2941 29.2042 28.4043L29.4245 28.2819C29.7854 28.0739 29.1186 28.4073 29.4918 28.2483C29.7977 28.1198 29.4153 28.2758 29.3755 28.2911C29.7059 28.1626 29.2379 28.3339 29.2042 28.3461C28.6598 28.5021 28.8984 28.4195 29.0299 28.392C28.5558 28.4899 28.7944 28.4379 28.9045 28.4226C28.5252 28.4715 28.8127 28.441 28.9045 28.4226C29.1064 28.4226 28.7362 28.3951 28.9351 28.4226C29.1339 28.4501 29.3205 28.4532 29.4734 28.4899C32.3518 29.1506 33.4866 32.4205 33.5845 35.0511C33.6354 36.6718 33.503 38.293 33.1899 39.884C32.9258 41.367 32.3661 42.7817 31.5442 44.044C31.1487 44.6441 30.6675 45.1831 30.1158 45.6438C29.9659 45.7661 29.8099 45.8763 29.6508 45.9894C29.4398 46.124 29.6111 46.017 29.6508 45.9894L29.3664 46.1883C29.2953 46.2184 29.2268 46.2542 29.1614 46.2953L29.3358 46.2097L29.1217 46.2984C29.1492 46.28 29.5713 46.1332 29.2654 46.2372L29.5713 46.1363C29.4082 46.1832 29.4235 46.1832 29.6172 46.1363C30.128 46.0078 29.3511 46.1944 29.7946 46.0965C29.4581 46.0965 30.2381 45.9986 29.7946 46.0965C30.1311 46.0965 29.2929 46.0965 29.66 46.0965C28.5524 46.0912 27.4874 45.6685 26.6777 44.9127C26.5155 44.7628 25.8273 44.8821 25.6805 44.9127C25.1483 44.9764 24.6243 45.0964 24.1174 45.2706C23.7116 45.3904 23.3274 45.5742 22.9795 45.8151C22.8205 45.9435 22.6951 46.0567 22.8755 46.2219C24.1449 47.372 25.9099 47.632 27.5617 47.4638C29.7824 47.2344 32.1744 46.4635 33.8904 44.977C36.5913 42.64 37.3774 39.0795 37.5609 35.6567C37.6619 33.8857 37.5854 32.0259 36.836 30.3894C36.2384 29.0207 35.1459 27.9283 33.7772 27.3306C32.8973 27.0097 31.9531 26.9048 31.0242 27.0247C29.637 27.1729 28.284 27.5501 27.0202 28.1412C25.3008 28.9468 23.8647 30.2528 22.9 31.8883C20.8017 35.3141 19.7127 39.4252 19.5781 43.4353C19.5781 43.8605 21.5235 43.3741 21.7193 43.3221C22.1983 43.1991 22.6613 43.0205 23.0988 42.7899C23.2793 42.6828 23.5852 42.5483 23.5944 42.3035L23.5791 42.2883Z" fill="#608A3D"/>
<path d="M35.7336 42.2882C35.8424 39.0631 36.6008 35.8931 37.9635 32.968C38.552 31.5868 39.3677 30.3141 40.3769 29.2026C40.6039 28.9706 40.8506 28.7588 41.1141 28.5694C41.1753 28.5235 41.5393 28.2941 41.3496 28.4042L41.5699 28.2819C41.9308 28.0739 41.264 28.4073 41.6371 28.2482C41.943 28.1197 41.5607 28.2757 41.5209 28.291C41.8513 28.1626 41.3863 28.3339 41.3527 28.3461C40.8052 28.5021 41.0468 28.4195 41.1783 28.392C40.7011 28.4899 40.9428 28.4379 41.0529 28.4226C40.6736 28.4715 40.9612 28.4409 41.0529 28.4226C41.2548 28.4226 40.8847 28.395 41.0866 28.4226C41.2884 28.4501 41.472 28.4531 41.6219 28.4899C44.5033 29.1506 45.635 32.4204 45.7329 35.051C45.7869 36.6718 45.6545 38.2934 45.3383 39.884C45.0753 41.3668 44.5167 42.7815 43.6957 44.044C43.2991 44.6442 42.8168 45.1831 42.2642 45.6437C42.1143 45.7661 41.9583 45.8762 41.8023 45.9894C41.5913 46.124 41.7626 46.0169 41.8023 45.9894L41.4964 46.1607C41.4254 46.1908 41.3568 46.2266 41.2915 46.2677L41.4659 46.1821L41.2517 46.2708C41.2762 46.2524 41.7014 46.1056 41.3955 46.2096L41.7014 46.1087C41.5382 46.1556 41.5535 46.1556 41.7473 46.1087C42.255 45.9802 41.4781 46.1668 41.9247 46.0689C41.5851 46.0689 42.3713 45.971 41.9247 46.0689C42.2642 46.0689 41.423 46.0689 41.787 46.0689C40.6805 46.0626 39.6169 45.64 38.8077 44.8852C38.6456 44.7353 37.9543 44.8546 37.8106 44.8852C37.2793 44.9592 36.7574 45.0894 36.2536 45.2736C35.8478 45.3934 35.4636 45.5772 35.1157 45.8181C34.9567 45.9466 34.8313 46.0597 35.0117 46.2249C36.2812 47.375 38.043 47.635 39.6979 47.4668C41.9186 47.2374 44.3106 46.4666 46.0266 44.98C48.7275 42.643 49.5136 39.0826 49.6972 35.6597C49.8012 33.8887 49.7247 32.0289 48.9753 30.3924C48.3776 29.0238 47.2851 27.9313 45.9164 27.3336C45.0364 27.0132 44.0924 26.9083 43.1635 27.0277C41.7808 27.1771 40.4321 27.5532 39.1717 28.1411C37.4528 28.9475 36.017 30.2534 35.0515 31.8882C32.9593 35.311 31.8673 39.4221 31.7266 43.4169C31.7266 43.8421 33.672 43.3557 33.8677 43.3037C34.3471 43.1818 34.8102 43.0031 35.2473 42.7715C35.4308 42.6644 35.7367 42.5299 35.7459 42.2852L35.7336 42.2882Z" fill="#608A3D"/>
<path d="M5.25277 16.0344C5.40062 15.6517 5.68205 15.3355 6.045 15.1442C6.20368 15.0761 6.36605 15.0168 6.53136 14.9668C6.74547 14.8873 6.49771 15.025 6.49465 14.9668C5.63687 14.9552 4.78668 14.8044 3.97724 14.5203C4.08124 14.5539 4.10877 14.5661 4.06289 14.5631C4.38602 14.7867 4.65897 15.0753 4.8643 15.4104C5.07374 15.8309 5.17866 16.2957 5.17018 16.7654C5.18853 17.6647 5.22218 18.512 5.98689 19.1146C6.37105 19.3911 6.80068 19.5981 7.2563 19.7264C8.28184 20.0538 9.34242 20.2591 10.4161 20.3381C11.5539 20.4299 12.597 20.3381 13.5667 19.6988C14.3478 19.1485 15.0461 18.4893 15.6405 17.7412C17.0049 16.1603 18.2696 14.4962 19.4274 12.7584C20.7622 10.7515 21.952 8.65189 22.9878 6.47555C23.0979 6.24613 21.1525 5.86378 20.9812 5.84543C20.4974 5.75688 20.0077 5.70474 19.5161 5.68943C19.3692 5.68943 18.9563 5.63437 18.8798 5.79649C17.0596 9.61594 14.7692 13.1929 12.0617 16.4443C11.4609 17.2208 10.7869 17.9378 10.049 18.5854C9.70017 18.8706 9.31039 19.1016 8.89277 19.2706C8.71899 19.3442 8.53877 19.4015 8.35441 19.4419C8.04853 19.5061 8.5043 19.4082 8.18312 19.4633C8.03936 19.4633 8.04853 19.4633 8.21371 19.4633C8.82435 19.4886 9.43047 19.5799 10.0215 19.7355L10.2417 19.7937C10.3824 19.8457 10.4099 19.8548 10.3243 19.8181C10.3243 19.8181 10.1255 19.7141 10.2203 19.7661C10.0614 19.6736 9.91625 19.5593 9.789 19.4266C9.50214 19.1054 9.33564 18.6946 9.31794 18.2642C9.3206 17.775 9.29711 17.2859 9.24759 16.7991C9.15225 16.3406 8.94154 15.914 8.63538 15.5597C8.32922 15.2054 7.93773 14.935 7.49794 14.7741C6.27446 14.3137 4.97859 14.0755 3.67136 14.0706C2.66194 14.0706 1.57912 14.3367 1.16006 15.3645C1.05912 15.6153 2.99536 15.9763 3.16665 15.9946C3.65046 16.0831 4.14022 16.1353 4.63183 16.1506C4.76947 16.1506 5.20383 16.2026 5.26806 16.0435L5.25277 16.0344Z" fill="#FCC60E"/>
</g>
<defs>
<clipPath id="clip0_1458_3968">
<rect width="52" height="52" fill="white"/>
</clipPath>
</defs>
</svg>
