<svg width="32" height="32" viewBox="0 0 32 32" fill="none" xmlns="http://www.w3.org/2000/svg">
<path d="M16.5469 17.3561C17.1547 15.9473 18.2298 14.7912 19.5908 14.083C20.9519 13.3747 22.5156 13.1576 24.0181 13.4683C25.5206 13.7789 26.87 14.5983 27.8386 15.7883C28.8072 16.9782 29.3357 18.4658 29.3349 20.0001C29.3349 25.1547 24.0016 29.3334 17.3349 29.3334C11.8989 29.3334 6.46425 28.2401 3.50691 26.0507C2.93891 25.6294 2.66558 24.9414 2.68025 24.2347C2.82558 16.9641 3.50425 2.66675 13.3349 2.66675C14.3958 2.66675 15.4132 3.08818 16.1633 3.83832C16.9135 4.58847 17.3349 5.60588 17.3349 6.66675C17.3349 7.37399 17.054 8.05227 16.5539 8.55237C16.0538 9.05246 15.3755 9.33341 14.6682 9.33341C13.1949 9.33341 12.4816 8.74141 12.0016 8.00008M20.0016 18.6667C19.1969 18.0629 18.266 17.649 17.2786 17.4561C16.2912 17.2631 15.273 17.2962 14.3002 17.5527C13.3274 17.8093 12.4253 18.2826 11.6614 18.9374C10.8976 19.5921 10.2918 20.4113 9.88958 21.3334M13.2869 9.10008C10.6936 10.6361 12.6682 17.3334 10.6682 20.0001" stroke="#1C474E" stroke-width="2" stroke-linecap="round" stroke-linejoin="round"/>
</svg>
