<svg width="25" height="16" viewBox="0 0 25 16" fill="none" xmlns="http://www.w3.org/2000/svg">
<g clip-path="url(#clip0_1097_164)">
<path d="M7.03813 -0.00030846C7.69512 -0.0124815 8.35118 0.0547364 8.99199 0.199879C9.53153 0.317431 10.0438 0.536175 10.5015 0.844484C10.9243 1.15106 11.2588 1.56323 11.4714 2.0396C11.7158 2.62539 11.8337 3.25601 11.8175 3.89034C11.8452 4.58684 11.667 5.27609 11.3049 5.8722C10.9241 6.4352 10.3976 6.88484 9.78136 7.17342C10.6176 7.3984 11.346 7.91375 11.8355 8.62678C12.3055 9.38229 12.5417 10.2593 12.5146 11.1481C12.5301 11.8568 12.3832 12.5596 12.0853 13.2031C11.8099 13.7644 11.4066 14.2535 10.9077 14.6314C10.3942 15.0051 9.81621 15.2816 9.20262 15.4472C8.56631 15.6228 7.90896 15.7111 7.24876 15.7094H0V-0.00030846H7.03813ZM6.61987 6.35365C7.13608 6.37488 7.64423 6.22067 8.0612 5.91624C8.26089 5.73883 8.41623 5.51727 8.5148 5.26926C8.61338 5.02125 8.65245 4.75367 8.6289 4.4879C8.64226 4.17749 8.58033 3.86846 8.44836 3.58705C8.33641 3.36301 8.16234 3.17575 7.94685 3.04755C7.72859 2.90643 7.48337 2.81202 7.22669 2.77029C6.94819 2.71645 6.66479 2.69196 6.38115 2.69722H3.28386V6.36766H6.61987V6.35365ZM6.80041 13.0419C7.11259 13.0461 7.42413 13.0125 7.7282 12.9418C8.00607 12.8806 8.2696 12.7668 8.50453 12.6065C8.73468 12.4463 8.92062 12.2308 9.04515 11.9799C9.18954 11.66 9.25588 11.3104 9.23873 10.96C9.27004 10.6406 9.22765 10.3183 9.11481 10.0178C9.00198 9.71728 8.82169 9.44655 8.58778 9.22634C8.09199 8.86193 7.4844 8.68141 6.86962 8.71586H3.28386V13.0419H6.80041Z" fill="#3D595D"/>
<path d="M17.1904 12.984C17.4481 13.2224 17.7518 13.406 18.0828 13.5237C18.4139 13.6414 18.7654 13.6907 19.1162 13.6687C19.6722 13.6827 20.2174 13.5138 20.6678 13.1882C21.0343 12.9504 21.3118 12.5986 21.4572 12.1873H24.0761C23.797 13.3582 23.1156 14.3945 22.1503 15.116C21.2242 15.7294 20.1298 16.04 19.0189 16.0048C18.226 16.0152 17.4391 15.8665 16.7049 15.5674C16.0408 15.291 15.4452 14.8733 14.9597 14.3433C14.476 13.7879 14.1045 13.1446 13.8654 12.4485C13.5971 11.6705 13.4658 10.852 13.4773 10.0292C13.4724 9.2203 13.6081 8.41665 13.8785 7.65401C14.2417 6.58112 14.9361 5.65063 15.8622 4.99606C16.7882 4.34149 17.8982 3.9965 19.0329 4.0106C19.8707 3.99312 20.6991 4.18878 21.4402 4.57913C22.11 4.94568 22.6878 5.45901 23.1302 6.08054C23.5828 6.7327 23.9071 7.46467 24.0861 8.23756C24.2824 9.0675 24.3524 9.9222 24.2937 10.7729H16.4933C16.4301 11.5722 16.68 12.3648 17.1904 12.984ZM20.6127 7.00941C20.3944 6.79153 20.1318 6.62286 19.8427 6.51477C19.5536 6.40669 19.2447 6.36169 18.9366 6.38282C18.528 6.36727 18.1223 6.45762 17.7591 6.64507C17.4712 6.80326 17.217 7.01612 17.0109 7.27165C16.8282 7.51124 16.6921 7.78284 16.6097 8.07241C16.5353 8.31391 16.4889 8.56309 16.4712 8.8151H21.3027C21.2606 8.15814 21.0208 7.52914 20.6147 7.01041L20.6127 7.00941Z" fill="#3D595D"/>
<path d="M21.9057 1.04883H15.8516V2.59328H21.9057V1.04883Z" fill="#3D595D"/>
</g>
<defs>
<clipPath id="clip0_1097_164">
<rect width="24.32" height="16" fill="white"/>
</clipPath>
</defs>
</svg>
