<svg width="48" height="48" viewBox="0 0 48 48" fill="none" xmlns="http://www.w3.org/2000/svg">
<g clip-path="url(#clip0_1034_475)">
<path d="M15.437 10.9998C16.5046 10.9801 17.5707 11.0893 18.612 11.3251C19.4887 11.5162 20.3211 11.8716 21.065 12.3726C21.7519 12.8708 22.2955 13.5406 22.6411 14.3147C23.0382 15.2666 23.2298 16.2914 23.2034 17.3221C23.2485 18.4539 22.9588 19.574 22.3705 20.5427C21.7516 21.4575 20.8961 22.1882 19.8947 22.6571C21.2536 23.0227 22.4373 23.8602 23.2327 25.0189C23.9964 26.2466 24.3802 27.6717 24.3362 29.1161C24.3614 30.2676 24.1228 31.4097 23.6386 32.4553C23.191 33.3674 22.5357 34.1623 21.7251 34.7764C20.8905 35.3837 19.9513 35.833 18.9543 36.102C17.9203 36.3875 16.8521 36.5308 15.7792 36.5281H4V10.9998H15.437ZM14.7573 21.325C15.5961 21.3595 16.4219 21.1089 17.0994 20.6142C17.4239 20.3259 17.6764 19.9659 17.8366 19.5629C17.9967 19.1599 18.0602 18.725 18.022 18.2932C18.0437 17.7888 17.943 17.2866 17.7286 16.8293C17.5467 16.4652 17.2638 16.1609 16.9136 15.9526C16.559 15.7233 16.1605 15.5699 15.7434 15.5021C15.2908 15.4146 14.8303 15.3748 14.3694 15.3833H9.33627V21.3478H14.7573V21.325ZM15.0507 32.1935C15.558 32.2003 16.0642 32.1457 16.5583 32.0308C17.0099 31.9313 17.4381 31.7463 17.8199 31.4859C18.1938 31.2257 18.496 30.8754 18.6984 30.4677C18.933 29.9478 19.0408 29.3798 19.0129 28.8103C19.0638 28.2913 18.9949 27.7676 18.8116 27.2792C18.6282 26.7909 18.3352 26.351 17.9551 25.9931C17.1495 25.401 16.1622 25.1076 15.1631 25.1636H9.33627V32.1935H15.0507Z" fill="white"/>
<path d="M31.9412 32.0992C32.3601 32.4866 32.8535 32.785 33.3914 32.9762C33.9294 33.1675 34.5007 33.2476 35.0706 33.2117C35.9742 33.2345 36.8602 32.9602 37.5921 32.431C38.1875 32.0446 38.6384 31.4728 38.8748 30.8045H43.1304C42.677 32.7072 41.5697 34.3912 40.0011 35.5637C38.4962 36.5604 36.7178 37.0652 34.9125 37.008C33.6241 37.0249 32.3454 36.7832 31.1524 36.2972C30.0732 35.8481 29.1053 35.1692 28.3164 34.308C27.5304 33.4056 26.9266 32.3601 26.5381 31.229C26.1021 29.9647 25.8887 28.6346 25.9074 27.2977C25.8994 25.9831 26.12 24.6772 26.5593 23.4379C27.1495 21.6945 28.278 20.1824 29.7828 19.1188C31.2876 18.0551 33.0914 17.4945 34.9353 17.5174C36.2967 17.489 37.6429 17.8069 38.8471 18.4412C39.9356 19.0369 40.8746 19.871 41.5935 20.881C42.3288 21.9408 42.8559 23.1302 43.1468 24.3862C43.4657 25.7348 43.5794 27.1237 43.4841 28.5062H30.8085C30.7058 29.805 31.1118 31.093 31.9412 32.0992ZM37.5024 22.3904C37.1477 22.0364 36.7211 21.7623 36.2513 21.5867C35.7815 21.411 35.2794 21.3379 34.7789 21.3722C34.1149 21.347 33.4556 21.4938 32.8654 21.7984C32.3975 22.0555 31.9844 22.4013 31.6495 22.8166C31.3527 23.2059 31.1315 23.6473 30.9975 24.1178C30.8768 24.5103 30.8013 24.9152 30.7726 25.3247H38.6238C38.5554 24.2571 38.1657 23.235 37.5057 22.3921L37.5024 22.3904Z" fill="white"/>
<path d="M39.5958 12.7046H29.7578V15.2143H39.5958V12.7046Z" fill="white"/>
</g>
<defs>
<clipPath id="clip0_1034_475">
<rect width="39.52" height="26" fill="white" transform="translate(4 11)"/>
</clipPath>
</defs>
</svg>
