<svg width="33" height="33" viewBox="0 0 33 33" fill="none" xmlns="http://www.w3.org/2000/svg">
<path d="M4.32813 15.166H8.32813C9.03537 15.166 9.71365 15.447 10.2137 15.9471C10.7138 16.4472 10.9948 17.1254 10.9948 17.8327V21.8327C10.9948 22.5399 10.7138 23.2182 10.2137 23.7183C9.71365 24.2184 9.03537 24.4993 8.32813 24.4993H6.99479C6.28755 24.4993 5.60927 24.2184 5.10917 23.7183C4.60908 23.2182 4.32813 22.5399 4.32813 21.8327V15.166ZM4.32813 15.166C4.32812 13.5902 4.63851 12.0297 5.24157 10.5738C5.84463 9.11791 6.72854 7.79504 7.84284 6.68073C8.95715 5.56643 10.28 4.68252 11.7359 4.07946C13.1918 3.4764 14.7523 3.16602 16.3281 3.16602C17.904 3.16602 19.4644 3.4764 20.9203 4.07946C22.3762 4.68252 23.6991 5.56643 24.8134 6.68073C25.9277 7.79504 26.8116 9.11791 27.4147 10.5738C28.0177 12.0297 28.3281 13.5902 28.3281 15.166M28.3281 15.166V21.8327M28.3281 15.166H24.3281C23.6209 15.166 22.9426 15.447 22.4425 15.9471C21.9424 16.4472 21.6615 17.1254 21.6615 17.8327V21.8327C21.6615 22.5399 21.9424 23.2182 22.4425 23.7183C22.9426 24.2184 23.6209 24.4993 24.3281 24.4993H25.6615C26.3687 24.4993 27.047 24.2184 27.5471 23.7183C28.0472 23.2182 28.3281 22.5399 28.3281 21.8327M28.3281 21.8327V24.4993C28.3281 25.9138 27.7662 27.2704 26.766 28.2706C25.7658 29.2708 24.4093 29.8327 22.9948 29.8327H16.3281" stroke="#031619" stroke-width="2" stroke-linecap="round" stroke-linejoin="round"/>
</svg>
