<svg width="48" height="48" viewBox="0 0 48 48" fill="none" xmlns="http://www.w3.org/2000/svg">
<g clip-path="url(#clip0_1034_461)">
<path fill-rule="evenodd" clip-rule="evenodd" d="M4 23.9964C4 12.9582 12.9517 4 24 4C35.0491 4 44 12.9662 44 24.0036C44 35.0418 35.0483 44 24 44H22.3777V43.9278C12.0949 43.1014 4 34.489 4 23.9964ZM24.4974 40.7487C33.5227 40.4856 40.7554 33.0848 40.7554 24.0036C40.7554 14.7553 33.2547 7.24399 24 7.24399C14.7445 7.24399 7.24458 14.7489 7.24458 23.9964C7.24458 33.2434 14.7513 40.7487 24 40.7487H24.4974Z" fill="white"/>
<path fill-rule="evenodd" clip-rule="evenodd" d="M15.9042 9.34389C15.6817 9.27389 15.4512 9.20133 15.2109 9.11984L16.2534 6.04785C16.3492 6.08035 16.5216 6.13533 16.7229 6.19952C17.0846 6.31485 17.5395 6.4599 17.8104 6.5576L17.825 6.56284L17.8394 6.56836C17.9136 6.5967 17.993 6.62675 18.0763 6.65826C18.496 6.81698 19.0138 7.01281 19.4462 7.21506L19.4655 7.22405L19.5512 7.26688C19.7547 7.36177 20.0603 7.50743 20.3149 7.62875C20.4577 7.69686 20.5846 7.7573 20.6682 7.79678L20.7069 7.81505L20.7446 7.83534C20.7533 7.84006 20.7636 7.84556 20.7752 7.85178C20.8629 7.89875 21.0265 7.98626 21.1834 8.08215L21.2265 8.10846L21.2387 8.11699C21.2564 8.12729 21.2806 8.14105 21.3106 8.15773C21.3368 8.17232 21.362 8.18619 21.3872 8.20004C21.3921 8.20276 21.3971 8.20549 21.402 8.20821C21.4159 8.21585 21.4317 8.22454 21.4458 8.23244L21.4468 8.233C21.454 8.23701 21.4724 8.24724 21.4936 8.25961C21.5127 8.27063 21.5422 8.28744 21.5791 8.3085C21.6919 8.37288 21.8742 8.47692 22.0434 8.57604C22.2178 8.67814 22.4839 8.83542 22.6809 8.97347C22.8919 9.10304 23.1238 9.2637 23.2782 9.37067C23.3061 9.38994 23.3314 9.40748 23.3536 9.42277C23.4723 9.49507 23.5886 9.57706 23.6694 9.63503C23.7852 9.71796 23.9112 9.81192 24.0261 9.8983C24.0792 9.93821 24.1277 9.97482 24.1735 10.0094C24.2345 10.0555 24.2907 10.0979 24.3468 10.1399C24.3931 10.1745 24.4316 10.203 24.4627 10.2257C24.4781 10.2368 24.4901 10.2454 24.4991 10.2518C24.5068 10.2572 24.5104 10.2596 24.5106 10.2598L24.5529 10.288L24.5936 10.319C26.3841 11.6829 27.9786 13.2853 29.3396 15.0713L29.3409 15.073L29.3421 15.0746C30.8466 17.0596 32.0345 19.263 32.8583 21.6079C35.3127 28.4635 34.5909 36.3838 30.7332 42.6358L27.9719 40.9326C31.2964 35.5446 31.9364 28.6547 29.8021 22.6971L29.8003 22.6922L29.7986 22.6873C29.0876 20.662 28.0607 18.7555 26.7574 17.0355C25.5781 15.4884 24.201 14.1029 22.66 12.9243C22.5747 12.8652 22.4802 12.795 22.4029 12.7372C22.3444 12.6935 22.2757 12.6416 22.2079 12.5904C22.1623 12.556 22.1172 12.522 22.076 12.491C21.9646 12.4073 21.8634 12.332 21.7796 12.272C21.7049 12.2185 21.6739 12.1987 21.6741 12.1984C21.6738 12.1983 21.6741 12.1984 21.6741 12.1984L21.6262 12.1714L21.5699 12.1332C21.487 12.077 21.4132 12.0259 21.3456 11.9791C21.1971 11.8763 21.0781 11.794 20.9574 11.7224L20.8784 11.6755L20.8052 11.62C20.8097 11.6234 20.8094 11.6232 20.803 11.6189C20.7909 11.6109 20.7576 11.5887 20.6951 11.5499C20.6127 11.4988 20.5117 11.4385 20.4037 11.3753C20.2506 11.2856 20.1112 11.2061 20.0009 11.1431C19.9494 11.1138 19.9043 11.088 19.8671 11.0666L19.8637 11.0646C19.8581 11.0615 19.8497 11.0568 19.8371 11.0499C19.8332 11.0478 19.8289 11.0455 19.8244 11.043C19.7994 11.0292 19.7659 11.0108 19.7319 10.9918C19.692 10.9696 19.6436 10.9424 19.5966 10.9148C19.5708 10.8998 19.5228 10.8715 19.4691 10.8366C19.403 10.7973 19.3321 10.7592 19.2477 10.7139C19.2465 10.7132 19.2452 10.7125 19.244 10.7118C19.1431 10.6641 19.0174 10.6042 18.8841 10.5406C18.6332 10.421 18.3549 10.2883 18.1617 10.1984L18.1409 10.1887L18.0536 10.1451C17.7473 10.0031 17.3805 9.86406 16.9698 9.70833C16.8804 9.67447 16.7891 9.63983 16.6957 9.60419C16.4426 9.51331 16.1796 9.43058 15.9042 9.34389ZM19.8671 11.0666C19.8689 11.0676 19.87 11.0681 19.87 11.0681L19.8671 11.0666ZM19.8671 11.0666C19.8689 11.0676 19.87 11.0681 19.87 11.0681L19.8671 11.0666Z" fill="white"/>
<path fill-rule="evenodd" clip-rule="evenodd" d="M22.7379 17.0646C27.6343 16.1805 32.1527 13.4342 35.2431 9.5249L37.7886 11.5365C34.2173 16.0542 29.0039 19.2298 23.3141 20.257C20.481 20.7678 17.5698 20.7852 14.7284 20.2642C11.8948 19.7592 9.16051 18.7419 6.6875 17.2568L8.35811 14.4759C10.4891 15.7556 12.8509 16.6349 15.3017 17.0712L15.3059 17.072L15.3102 17.0728C17.7534 17.5212 20.2721 17.5092 22.7379 17.0646Z" fill="white"/>
<path fill-rule="evenodd" clip-rule="evenodd" d="M14.0625 40.4443C16.8325 26.3098 31.2371 18.5038 43.0178 21.7146L42.1644 24.8445C32.1641 22.1188 19.6466 28.8211 17.2466 41.0681L14.0625 40.4443Z" fill="white"/>
</g>
<defs>
<clipPath id="clip0_1034_461">
<rect width="40" height="40" fill="white" transform="translate(4 4)"/>
</clipPath>
</defs>
</svg>
