<svg width="24" height="24" viewBox="0 0 24 24" fill="none" xmlns="http://www.w3.org/2000/svg">
<g clip-path="url(#clip0_1097_156)">
<path fill-rule="evenodd" clip-rule="evenodd" d="M0 11.9978C0 5.37491 5.37101 0 12 0C18.6295 0 24 5.37975 24 12.0022C24 18.6251 18.629 24 12 24H11.0266V23.9567C4.85696 23.4609 0 18.2934 0 11.9978ZM12.2985 22.0492C17.7136 21.8914 22.0533 17.4509 22.0533 12.0022C22.0533 6.45319 17.5528 1.9464 12 1.9464C6.4467 1.9464 1.94675 6.44936 1.94675 11.9978C1.94675 17.5461 6.45079 22.0492 12 22.0492H12.2985Z" fill="#3D595D"/>
<path fill-rule="evenodd" clip-rule="evenodd" d="M7.14251 3.20639C7.00905 3.16439 6.87071 3.12085 6.72656 3.07196L7.35206 1.22876C7.40951 1.24826 7.51298 1.28124 7.63376 1.31976C7.85078 1.38896 8.1237 1.47599 8.28626 1.53461L8.295 1.53775L8.30366 1.54106C8.34814 1.55807 8.3958 1.5761 8.44579 1.595C8.6976 1.69024 9.00829 1.80774 9.26775 1.92909L9.2793 1.93448L9.33071 1.96018C9.45281 2.01711 9.63619 2.10451 9.78892 2.1773C9.87465 2.21817 9.95074 2.25443 10.0009 2.27811L10.0241 2.28908L10.0467 2.30125C10.052 2.30409 10.0582 2.30739 10.0652 2.31112C10.1178 2.3393 10.2159 2.3918 10.3101 2.44934L10.3359 2.46512L10.3432 2.47024C10.3538 2.47642 10.3684 2.48468 10.3864 2.49469C10.4021 2.50344 10.4172 2.51176 10.4323 2.52008C10.4353 2.52171 10.4382 2.52334 10.4412 2.52498C10.4495 2.52956 10.459 2.53478 10.4675 2.53952L10.4681 2.53985C10.4724 2.54225 10.4834 2.54839 10.4961 2.55582C10.5076 2.56242 10.5253 2.57251 10.5474 2.58515C10.6151 2.62378 10.7245 2.6862 10.8261 2.74567C10.9307 2.80694 11.0904 2.9013 11.2085 2.98413C11.3351 3.06187 11.4743 3.15827 11.5669 3.22245C11.5836 3.23402 11.5988 3.24453 11.6121 3.25371C11.6834 3.29709 11.7531 3.34628 11.8017 3.38106C11.8711 3.43083 11.9467 3.4872 12.0156 3.53903C12.0475 3.56297 12.0766 3.58494 12.1041 3.6057C12.1407 3.63332 12.1744 3.6588 12.2081 3.68397C12.2358 3.70475 12.259 3.72188 12.2776 3.73544C12.2869 3.74215 12.2941 3.7473 12.2995 3.75111C12.3041 3.75437 12.3063 3.75584 12.3064 3.75591L12.3317 3.77282L12.3562 3.79142C13.4305 4.60979 14.3872 5.57125 15.2037 6.64285L15.2045 6.64382L15.2053 6.64484C16.108 7.8358 16.8207 9.15786 17.315 10.5648C18.7877 14.6782 18.3546 19.4303 16.0399 23.1815L14.3831 22.1596C16.3778 18.9268 16.7619 14.7929 15.4812 11.2183L15.4802 11.2154L15.4792 11.2124C15.0525 9.99722 14.4364 8.85332 13.6544 7.82132C12.9469 6.89309 12.1206 6.06179 11.196 5.35465C11.1448 5.31917 11.0881 5.27706 11.0418 5.24237C11.0067 5.21612 10.9654 5.185 10.9247 5.15428C10.8974 5.13366 10.8703 5.11326 10.8456 5.09466C10.7788 5.04441 10.7181 4.99922 10.6678 4.96322C10.623 4.93112 10.6043 4.91927 10.6044 4.91909C10.6043 4.91901 10.6045 4.91909 10.6044 4.91909L10.5757 4.90289L10.5419 4.87997C10.4922 4.84622 10.4479 4.81559 10.4073 4.7875C10.3182 4.72585 10.2469 4.67646 10.1745 4.63349L10.1271 4.60532L10.0831 4.57202C10.0858 4.57409 10.0857 4.57397 10.0818 4.57139C10.0746 4.56659 10.0545 4.55327 10.017 4.52999C9.96761 4.49935 9.90701 4.46316 9.84225 4.42521C9.75037 4.37144 9.66671 4.3237 9.60052 4.28594C9.56966 4.26831 9.54259 4.25286 9.52027 4.24L9.51825 4.23884C9.51484 4.23696 9.50981 4.23415 9.50224 4.22999C9.49991 4.22871 9.49736 4.22732 9.49466 4.22582C9.47962 4.21757 9.45956 4.20651 9.43912 4.19515C9.4152 4.18184 9.38617 4.16549 9.35794 4.14895C9.34249 4.13991 9.31369 4.12296 9.28144 4.10204C9.2418 4.07841 9.19928 4.05557 9.14865 4.02839C9.1479 4.02797 9.14715 4.02756 9.1464 4.02715C9.08584 3.9985 9.01046 3.96257 8.93047 3.9244C8.77995 3.85262 8.61293 3.77301 8.49701 3.7191L8.48453 3.7133L8.43214 3.68711C8.24835 3.6019 8.0283 3.51849 7.78185 3.42504C7.72826 3.40473 7.67344 3.38394 7.61745 3.36256C7.46554 3.30804 7.30777 3.25839 7.14251 3.20639ZM9.52027 4.24C9.52132 4.2406 9.522 4.24094 9.522 4.24094L9.52027 4.24ZM9.52027 4.24C9.52132 4.2406 9.522 4.24094 9.522 4.24094L9.52027 4.24Z" fill="#3D595D"/>
<path fill-rule="evenodd" clip-rule="evenodd" d="M11.2396 7.83875C14.1775 7.30832 16.8885 5.66049 18.7427 3.31494L20.27 4.52188C18.1273 7.23249 14.9992 9.13787 11.5853 9.75422C9.88547 10.0607 8.13876 10.0711 6.43393 9.75853C4.73376 9.45549 3.09318 8.84514 1.60938 7.95407L2.61174 6.28554C3.89035 7.05335 5.30743 7.58094 6.77788 7.84273L6.78043 7.84318L6.78298 7.84367C8.2489 8.11269 9.76011 8.10549 11.2396 7.83875Z" fill="#3D595D"/>
<path fill-rule="evenodd" clip-rule="evenodd" d="M6.03906 21.8665C7.70106 13.3858 16.3438 8.70221 23.4123 10.6287L22.9002 12.5066C16.9 10.8712 9.38954 14.8926 7.9495 22.2408L6.03906 21.8665Z" fill="#3D595D"/>
</g>
<defs>
<clipPath id="clip0_1097_156">
<rect width="24" height="24" fill="white"/>
</clipPath>
</defs>
</svg>
