<svg width="80" height="80" viewBox="0 0 80 80" fill="none" xmlns="http://www.w3.org/2000/svg">
<path d="M53.8438 73.1815V65.5907H56.0423L56.1302 66.3274C56.5289 66.0498 56.9627 65.8309 57.4317 65.6708C57.9125 65.5107 58.4284 65.4306 58.9795 65.4306C59.5657 65.4306 60.0172 65.5107 60.3337 65.6708C60.6621 65.8309 60.9142 66.0605 61.09 66.3594C61.477 66.0818 61.9167 65.8576 62.4091 65.6868C62.9133 65.516 63.5055 65.4306 64.1855 65.4306C65.147 65.4306 65.8564 65.6601 66.3137 66.1192C66.771 66.5676 66.9996 67.2562 66.9996 68.185V73.1815H64.6604V68.4252C64.6604 67.9235 64.5432 67.5658 64.3086 67.3523C64.0741 67.1281 63.6989 67.016 63.183 67.016C62.4795 67.016 61.8932 67.2455 61.4242 67.7046C61.4828 67.8861 61.5121 68.105 61.5121 68.3612V73.1815H59.2961V68.4252C59.2961 67.9555 59.2081 67.6032 59.0322 67.3683C58.8563 67.1334 58.5163 67.016 58.0121 67.016C57.6604 67.016 57.3262 67.1014 57.0096 67.2722C56.7047 67.4324 56.4292 67.6192 56.183 67.8327V73.1815H53.8438Z" fill="#545355"/>
<path d="M46.7224 73.3417C46.1947 73.3417 45.7023 73.2563 45.245 73.0855C44.7994 72.904 44.4359 72.6424 44.1545 72.3008C43.8848 71.9485 43.75 71.5107 43.75 70.9876C43.75 70.2403 44.0373 69.6424 44.6118 69.194C45.1981 68.7456 46.0599 68.5214 47.1973 68.5214H49.6596V68.3132C49.6596 67.8435 49.513 67.5125 49.2199 67.3203C48.9385 67.1282 48.3639 67.0321 47.4963 67.0321C46.5465 67.0321 45.6319 67.1655 44.7525 67.4324V65.9111C45.1395 65.7723 45.6085 65.6602 46.1596 65.5748C46.7224 65.4787 47.3321 65.4307 47.9887 65.4307C49.2433 65.4307 50.2107 65.6655 50.8908 66.1353C51.5825 66.5944 51.9284 67.3364 51.9284 68.3613V73.1816H49.8706L49.7475 72.493C49.4192 72.7599 49.0147 72.968 48.534 73.1175C48.0532 73.267 47.4494 73.3417 46.7224 73.3417ZM47.3731 71.9164C47.9008 71.9164 48.3581 71.8364 48.745 71.6762C49.1319 71.5161 49.4368 71.3132 49.6596 71.0677V69.8666H47.25C46.3237 69.8666 45.8606 70.2136 45.8606 70.9075C45.8606 71.5801 46.3648 71.9164 47.3731 71.9164Z" fill="#545355"/>
<path d="M38.2749 73.3415C37.3251 73.3415 36.4809 73.2187 35.7422 72.9732V71.1475C36.3285 71.3824 37.0144 71.4999 37.8 71.4999C38.527 71.4999 39.0429 71.3664 39.3477 71.0995C39.6643 70.8219 39.8226 70.3735 39.8226 69.7543V62.8682H42.197V70.2347C42.197 72.3059 40.8896 73.3415 38.2749 73.3415Z" fill="#545355"/>
<path d="M30.7053 76.0001C30.0838 76.0001 29.4448 75.9627 28.7882 75.888C28.1433 75.8132 27.598 75.7065 27.1525 75.5677V73.9503C27.6215 74.089 28.1726 74.1958 28.8058 74.2705C29.4389 74.3559 30.0311 74.3987 30.5822 74.3987C31.3912 74.3987 31.9775 74.3559 32.341 74.2705C32.7044 74.1958 32.8862 74.057 32.8862 73.8542C32.8862 73.6833 32.8041 73.5659 32.64 73.5019C32.4875 73.4378 32.1592 73.4058 31.655 73.4058H29.3862C27.897 73.4058 27.1525 72.904 27.1525 71.9004C27.1525 71.5908 27.2463 71.3079 27.4339 71.0517C27.6215 70.7954 27.9205 70.5926 28.3309 70.4431C27.3811 70.0054 26.9062 69.2687 26.9062 68.2332C26.9062 67.251 27.2404 66.541 27.9088 66.1033C28.5771 65.6549 29.5679 65.4307 30.8811 65.4307C31.1508 65.4307 31.444 65.452 31.7606 65.4947C32.0889 65.5267 32.3351 65.5588 32.4993 65.5908H35.6299L35.5772 66.952H34.2581C34.6215 67.2616 34.8033 67.694 34.8033 68.2492C34.8033 69.0285 34.5336 69.6531 33.9942 70.1228C33.4549 70.5819 32.6575 70.8115 31.6023 70.8115C31.4147 70.8115 31.2329 70.8061 31.057 70.7954C30.8929 70.7741 30.7229 70.7527 30.547 70.7314C30.1952 70.7741 29.8962 70.8488 29.65 70.9556C29.4155 71.0623 29.2982 71.2065 29.2982 71.388C29.2982 71.6335 29.5386 71.7563 30.0193 71.7563H32.3761C33.2204 71.7563 33.8711 71.9325 34.3284 72.2848C34.7857 72.6264 35.0143 73.1282 35.0143 73.7901C35.0143 74.5374 34.645 75.0926 33.9063 75.4556C33.1676 75.8186 32.1006 76.0001 30.7053 76.0001ZM30.8987 69.5944C31.6023 69.5944 32.0889 69.4876 32.3585 69.2741C32.64 69.0499 32.7807 68.6762 32.7807 68.1531C32.7807 67.63 32.64 67.251 32.3585 67.0161C32.0889 66.7812 31.6023 66.6638 30.8987 66.6638C30.2304 66.6638 29.7497 66.7812 29.4565 67.0161C29.1634 67.2403 29.0168 67.6193 29.0168 68.1531C29.0168 68.6442 29.1517 69.0072 29.4213 69.2421C29.7028 69.4769 30.1952 69.5944 30.8987 69.5944Z" fill="#545355"/>
<path d="M22.5943 64.1975V62.5H25.1798V64.1975H22.5943ZM22.7878 73.1815V67.1922H21.5391L21.7501 65.5908H25.1622V73.1815H22.7878Z" fill="#545355"/>
<path d="M13 73.1815V62.8683H20.9674V64.5498H15.3744V67.1922H20.3166V68.8576H15.3744V73.1815H13Z" fill="#545355"/>
<path d="M48.7905 22.2253C53.7773 22.2673 57.7581 26.3206 57.716 31.3134C57.6739 36.3062 53.6254 40.2919 48.6386 40.2498C43.6518 40.2078 39.671 36.1545 39.7131 31.1617C39.7552 26.1689 43.8037 22.1833 48.7905 22.2253Z" fill="url(#paint0_linear_1034_536)"/>
<path d="M30.7358 40.0495C25.749 40.0075 21.7005 43.9931 21.6584 48.9859C21.6163 53.9787 25.5971 58.032 30.5839 58.074C35.5707 58.1161 39.6193 54.1304 39.6613 49.1376L39.7373 40.1254L30.7358 40.0495Z" fill="url(#paint1_linear_1034_536)"/>
<path d="M30.799 22.0676C25.8482 22.0259 21.8177 26.0117 21.7756 31.0045C21.7335 35.9972 25.6783 40.0503 30.6471 40.0921L39.7025 40.1685L39.8545 22.1439L30.799 22.0676Z" fill="url(#paint2_linear_1034_536)"/>
<path d="M30.9474 4.07541C25.9966 4.03369 21.9661 8.01947 21.924 13.0123C21.882 18.0051 25.8267 22.0581 30.7955 22.0999L39.851 22.1763L40.0029 4.15174L30.9474 4.07541Z" fill="url(#paint3_linear_1034_536)"/>
<path d="M49.0476 4.23111C53.9984 4.27284 57.9612 8.326 57.9191 13.3188C57.877 18.3116 53.8645 22.2975 48.8957 22.2556L39.8403 22.1793L39.9922 4.15479L49.0476 4.23111Z" fill="url(#paint4_linear_1034_536)"/>
<defs>
<linearGradient id="paint0_linear_1034_536" x1="48.6386" y1="40.2498" x2="48.7905" y2="22.2253" gradientUnits="userSpaceOnUse">
<stop stop-color="#01B7FE"/>
<stop offset="1" stop-color="#34C2FE"/>
</linearGradient>
<linearGradient id="paint1_linear_1034_536" x1="30.5838" y1="58.0921" x2="30.7357" y2="40.0675" gradientUnits="userSpaceOnUse">
<stop stop-color="#0AB875"/>
<stop offset="1" stop-color="#0AEB93"/>
</linearGradient>
<linearGradient id="paint2_linear_1034_536" x1="30.7191" y1="40.0927" x2="30.871" y2="22.0682" gradientUnits="userSpaceOnUse">
<stop stop-color="#923DFF"/>
<stop offset="1" stop-color="#B070FF"/>
</linearGradient>
<linearGradient id="paint3_linear_1034_536" x1="30.8494" y1="22.1184" x2="31.0013" y2="4.09389" gradientUnits="userSpaceOnUse">
<stop stop-color="#E83F0D"/>
<stop offset="1" stop-color="#F26135"/>
</linearGradient>
<linearGradient id="paint4_linear_1034_536" x1="48.8236" y1="22.2731" x2="49.0477" y2="4.24914" gradientUnits="userSpaceOnUse">
<stop stop-color="#FF5947"/>
<stop offset="1" stop-color="#FF8A7A"/>
</linearGradient>
</defs>
</svg>
