<svg width="32" height="33" viewBox="0 0 32 33" fill="none" xmlns="http://www.w3.org/2000/svg">
<path d="M23.9974 29.8327H5.33073C4.62349 29.8327 3.94521 29.5517 3.44511 29.0516C2.94501 28.5515 2.66406 27.8733 2.66406 27.166V8.49935M29.3307 17.8327L27.6027 16.1047C27.0001 15.5022 26.1829 15.1637 25.3307 15.1637C24.4786 15.1637 23.6613 15.5022 23.0587 16.1047L14.6641 24.4993M18.6641 11.166C18.6641 12.6388 17.4702 13.8327 15.9974 13.8327C14.5246 13.8327 13.3307 12.6388 13.3307 11.166C13.3307 9.69326 14.5246 8.49935 15.9974 8.49935C17.4702 8.49935 18.6641 9.69326 18.6641 11.166ZM10.6641 3.16602H26.6641C28.1368 3.16602 29.3307 4.35992 29.3307 5.83268V21.8327C29.3307 23.3054 28.1368 24.4993 26.6641 24.4993H10.6641C9.1913 24.4993 7.9974 23.3054 7.9974 21.8327V5.83268C7.9974 4.35992 9.1913 3.16602 10.6641 3.16602Z" stroke="#031619" stroke-width="2" stroke-linecap="round" stroke-linejoin="round"/>
</svg>
