<svg width="80" height="80" viewBox="0 0 80 80" fill="none" xmlns="http://www.w3.org/2000/svg">
<path d="M0 40C0 43.167 2.56735 45.7344 5.73437 45.7344C8.9014 45.7344 11.4687 43.167 11.4687 40C11.4687 36.2532 12.2066 32.5431 13.6405 29.0816L13.777 28.7579C15.2064 25.4239 17.2588 22.392 19.8254 19.8254L20.0751 19.5788C22.6716 17.0454 25.7281 15.0295 29.0816 13.6405L29.4068 13.5083C32.775 12.1614 36.3703 11.4688 40 11.4688C43.7468 11.4688 47.4569 12.2066 50.9184 13.6405L51.2421 13.777C54.5761 15.2064 57.6081 17.2588 60.1746 19.8254L60.4212 20.0751C62.9546 22.6716 64.9705 25.7281 66.3595 29.0816L66.4917 29.4068C67.8386 32.775 68.5312 36.3703 68.5312 40C68.5312 43.167 71.0986 45.7344 74.2656 45.7344C77.4326 45.7344 80 43.167 80 40C80 34.9112 79.029 29.8707 77.1408 25.1485L76.9552 24.6926C75.0078 19.9912 72.1818 15.706 68.6301 12.0659L68.2843 11.7157C64.686 8.11743 60.4353 5.2398 55.761 3.2359L55.3074 3.04477C50.4543 1.03458 45.2529 7.62939e-06 40 7.62939e-06C34.9112 7.62939e-06 29.8707 0.970963 25.1485 2.85924L24.6926 3.04477C19.9913 4.99213 15.706 7.81799 12.0659 11.3696L11.7157 11.7157C8.11742 15.314 5.23979 19.5647 3.23589 24.239L3.04476 24.6926C1.03457 29.5457 0 34.7471 0 40Z" fill="#ABABAB"/>
<path d="M0 40C0 36.833 2.56735 34.2656 5.73437 34.2656C8.9014 34.2656 11.4687 36.833 11.4687 40C11.4687 43.7468 12.2066 47.4569 13.6405 50.9184L13.777 51.2421C15.2064 54.5761 17.2588 57.608 19.8254 60.1746L20.0751 60.4212C22.6716 62.9546 25.7281 64.9705 29.0816 66.3595L29.4068 66.4917C32.775 67.8386 36.3703 68.5312 40 68.5312C43.7468 68.5312 47.4569 67.7934 50.9184 66.3595L51.2421 66.223C54.5761 64.7936 57.6081 62.7412 60.1746 60.1746L60.4212 59.9249C62.9546 57.3284 64.9705 54.2719 66.3595 50.9184L66.4917 50.5932C67.8386 47.225 68.5312 43.6297 68.5312 40C68.5312 36.833 71.0986 34.2656 74.2656 34.2656C77.4326 34.2656 80 36.833 80 40C80 45.0888 79.029 50.1293 77.1408 54.8515L76.9552 55.3074C75.0078 60.0088 72.1818 64.294 68.6301 67.9341L68.2843 68.2843C64.686 71.8826 60.4353 74.7602 55.761 76.7641L55.3074 76.9552C50.4543 78.9654 45.2529 80 40 80C34.9112 80 29.8707 79.029 25.1485 77.1408L24.6926 76.9552C19.9913 75.0079 15.706 72.182 12.0659 68.6304L11.7157 68.2843C8.11742 64.686 5.23979 60.4353 3.23589 55.761L3.04476 55.3074C1.03457 50.4543 0 45.2529 0 40Z" fill="#3D595D"/>
<ellipse cx="54.1568" cy="36.3599" rx="7.93021" ry="7.93021" fill="#3D595D"/>
<ellipse cx="25.8443" cy="36.3599" rx="7.93021" ry="7.93021" fill="#3D595D"/>
</svg>
