<svg width="90" height="56" viewBox="0 0 90 56" fill="none" xmlns="http://www.w3.org/2000/svg">
<path d="M42.4536 33.6322C42.4536 31.5107 42.0437 29.4099 41.2473 27.4499C40.4508 25.4898 39.2835 23.7089 37.8119 22.2087C36.3403 20.7085 34.5932 19.5185 32.6704 18.7067C30.7477 17.8948 28.6869 17.4769 26.6057 17.4769C24.5245 17.4769 22.4637 17.8948 20.541 18.7067C18.6182 19.5185 16.8712 20.7085 15.3996 22.2087C13.9279 23.7089 12.7606 25.4898 11.9642 27.4499C11.1677 29.4099 10.7578 31.5107 10.7578 33.6322" stroke="#F0F4F1" stroke-width="4.90038" stroke-linecap="round"/>
<path d="M42.4536 33.6322C42.4536 35.7538 42.0437 37.8546 41.2473 39.8146C40.4508 41.7747 39.2835 43.5556 37.8119 45.0558C36.3403 46.556 34.5932 47.746 32.6704 48.5578C30.7477 49.3697 28.6869 49.7876 26.6057 49.7876C24.5245 49.7876 22.4637 49.3697 20.541 48.5578C18.6182 47.746 16.8712 46.556 15.3996 45.0558C13.9279 43.5556 12.7606 41.7747 11.9642 39.8146C11.1677 37.8546 10.7578 35.7538 10.7578 33.6322" stroke="#1C474E" stroke-width="4.90038" stroke-linecap="round"/>
<ellipse cx="33.152" cy="31.916" rx="3.66767" ry="3.73882" fill="#1C474E"/>
<ellipse cx="20.0583" cy="31.916" rx="3.66767" ry="3.73882" fill="#1C474E"/>
<path d="M87.4233 22.8529C87.0778 22.8529 86.7855 22.7387 86.5463 22.5102C86.3071 22.2682 86.1875 21.9658 86.1875 21.6029C86.1875 21.2399 86.3071 20.9442 86.5463 20.7157C86.7855 20.4738 87.0911 20.3528 87.4632 20.3528C87.8219 20.3528 88.1143 20.467 88.3402 20.6955C88.5794 20.9241 88.699 21.2198 88.699 21.5827C88.699 21.9456 88.5727 22.2481 88.3202 22.49C88.0811 22.732 87.7821 22.8529 87.4233 22.8529ZM87.1243 34.144C86.8851 34.144 86.6924 34.0835 86.5463 33.9625C86.4134 33.8415 86.347 33.6802 86.347 33.4786L86.5463 24.9095C86.5463 24.681 86.6127 24.5063 86.7456 24.3853C86.8918 24.2643 87.0844 24.2038 87.3236 24.2038C87.5628 24.2038 87.7489 24.2643 87.8817 24.3853C88.0279 24.5063 88.101 24.6877 88.101 24.9297L87.9017 33.4786C87.8884 33.6937 87.8087 33.8617 87.6625 33.9827C87.5296 34.0902 87.3502 34.144 87.1243 34.144Z" fill="#FAFAFA"/>
<path d="M77.8464 20.0502C78.843 20.0502 79.7666 20.2451 80.617 20.6349C81.4807 21.0113 82.1717 21.5557 82.69 22.2681C83.2082 22.967 83.4673 23.7803 83.4673 24.7077C83.4673 25.5546 83.2414 26.3073 82.7896 26.9659C82.3378 27.6112 81.7133 28.1085 80.916 28.458C80.132 28.8075 79.235 28.9822 78.2251 28.9822C77.0824 28.9822 76.119 28.7739 75.335 28.3572L75.2752 33.6398C75.2752 33.8817 75.2021 34.0699 75.0559 34.2043C74.923 34.3387 74.737 34.4059 74.4978 34.4059C74.2453 34.4059 74.046 34.3387 73.8999 34.2043C73.767 34.0699 73.7005 33.8884 73.7005 33.6599C73.7005 33.0416 73.7138 32.1276 73.7404 30.9178C73.767 29.6274 73.7803 28.6058 73.7803 27.8531C73.7803 26.4686 73.7537 24.9699 73.7005 23.3569C73.6872 23.2628 73.6806 23.1216 73.6806 22.9334L73.6208 22.9738C73.4879 23.041 73.375 23.0746 73.282 23.0746C73.0959 23.0746 72.9431 22.9872 72.8235 22.8125C72.7172 22.6243 72.6641 22.4092 72.6641 22.1673C72.6641 22.006 72.7172 21.8783 72.8235 21.7842C72.9298 21.6766 73.0893 21.5691 73.3019 21.4616L73.6407 21.2599V20.9373C73.6407 20.6282 73.7072 20.3997 73.8401 20.2518C73.9729 20.104 74.1789 20.03 74.458 20.03C74.6971 20.03 74.8832 20.0704 75.0161 20.151C75.1489 20.2317 75.2154 20.3392 75.2154 20.4736V20.5139C76.0658 20.2048 76.9428 20.0502 77.8464 20.0502ZM77.9461 27.6515C78.7035 27.6515 79.3679 27.5238 79.9393 27.2684C80.524 27.013 80.9758 26.6568 81.2947 26.1998C81.6136 25.7428 81.7731 25.2252 81.7731 24.6473C81.7731 24.0289 81.5937 23.4778 81.2349 22.9939C80.8761 22.51 80.3977 22.1337 79.7998 21.8648C79.2151 21.596 78.5706 21.4616 77.8664 21.4616C77.1355 21.4616 76.2585 21.6968 75.2353 22.1673C75.2619 23.1082 75.2752 23.7265 75.2752 24.0222C75.2752 24.3179 75.2885 24.7884 75.315 25.4336C75.3416 26.2267 75.3483 26.7509 75.335 27.0063C76.0791 27.4364 76.9495 27.6515 77.9461 27.6515Z" fill="#FAFAFA"/>
<path d="M70.1526 32.9543C70.3386 32.9812 70.4781 33.0349 70.5712 33.1156C70.6642 33.1962 70.7107 33.3441 70.7107 33.5592C70.7107 33.7608 70.6575 33.9221 70.5512 34.0431C70.4582 34.164 70.3253 34.2245 70.1526 34.2245C69.6078 34.2245 69.2025 34.1372 68.9367 33.9624C68.6842 33.7877 68.465 33.4583 68.279 32.9744C67.681 33.9557 66.6179 34.4463 65.0898 34.4463C64.0135 34.4463 63.1431 34.2044 62.4787 33.7205C61.8143 33.2366 61.3359 32.625 61.0436 31.8857C60.7645 31.1329 60.625 30.3399 60.625 29.5065C60.625 28.6059 60.8044 27.7591 61.1632 26.966C61.5219 26.1729 62.0468 25.5345 62.7378 25.0506C63.4421 24.5667 64.2792 24.3247 65.2493 24.3247C65.9137 24.3247 66.4917 24.4591 66.9834 24.728C67.475 24.9968 67.8604 25.3732 68.1394 25.8571L68.2192 25.1917C68.2457 24.6944 68.4716 24.4457 68.8969 24.4457C69.1626 24.4457 69.3619 24.5129 69.4948 24.6473C69.641 24.7683 69.7008 24.9161 69.6742 25.0909L69.6144 25.5949C69.5214 26.1595 69.455 26.7442 69.4151 27.3491C69.3752 27.8599 69.3553 28.5454 69.3553 29.4057V30.7969C69.3553 31.3749 69.3686 31.805 69.3952 32.0873C69.435 32.3561 69.5081 32.5645 69.6144 32.7123C69.7207 32.8602 69.9001 32.9408 70.1526 32.9543ZM67.8405 30.7767C67.8537 30.145 67.8604 29.3317 67.8604 28.3371C67.8604 27.6784 67.7209 27.1475 67.4418 26.7442C67.1628 26.3275 66.8239 26.0318 66.4253 25.8571C66.0266 25.6823 65.6479 25.5949 65.2891 25.5949C64.5849 25.5949 63.9935 25.7966 63.5152 26.1998C63.0501 26.6031 62.7046 27.1071 62.4787 27.712C62.2661 28.3169 62.1598 28.915 62.1598 29.5065C62.1598 30.4474 62.3857 31.2942 62.8375 32.047C63.3026 32.7863 64.06 33.1559 65.1097 33.1559C65.8937 33.1559 66.5382 32.9543 67.0432 32.551C67.5614 32.1343 67.8272 31.5429 67.8405 30.7767Z" fill="#FAFAFA"/>
<path d="M57.5761 27.1878C58.1741 27.1878 58.473 27.4298 58.473 27.9137C58.473 28.3841 58.1741 28.6194 57.5761 28.6194H57.2572L57.3967 33.5189C57.41 33.7474 57.3502 33.9356 57.2173 34.0834C57.0844 34.2178 56.8984 34.2851 56.6592 34.2851C56.4067 34.2851 56.2141 34.2246 56.0812 34.1036C55.9483 33.9692 55.8752 33.7877 55.8619 33.5592L55.7224 28.579L49.1448 28.4782L48.7262 33.8213C48.6863 34.1977 48.4339 34.3859 47.9688 34.3859C47.4107 34.3859 47.1516 34.1574 47.1914 33.7003L47.61 28.4379H47.2313C47.0054 28.4379 46.8127 28.3774 46.6532 28.2564C46.4938 28.1355 46.4141 27.9607 46.4141 27.7322C46.4141 27.5037 46.4938 27.329 46.6532 27.208C46.8127 27.087 47.0187 27.0265 47.2711 27.0265H47.7296L48.2478 20.4132C48.2611 20.1713 48.3408 19.9965 48.487 19.889C48.6465 19.768 48.8325 19.7075 49.0451 19.7075C49.3109 19.7075 49.5036 19.7882 49.6231 19.9495C49.7427 20.0973 49.7959 20.2855 49.7826 20.514L49.2644 27.0669L55.6825 27.1677L55.4832 20.4737C55.4832 20.2317 55.5496 20.0436 55.6825 19.9091C55.8154 19.7747 56.0014 19.7075 56.2406 19.7075C56.4798 19.7075 56.6658 19.7747 56.7987 19.9091C56.9449 20.0436 57.018 20.2116 57.018 20.4132L57.2173 27.1878H57.5761Z" fill="#FAFAFA"/>
<path d="M89.3341 48.6311C89.5733 48.6311 89.7394 48.6916 89.8324 48.8126C89.9387 48.9201 89.9919 49.1217 89.9919 49.4174C89.9919 50.1164 89.7593 50.7079 89.2943 51.1918C88.8425 51.6757 88.2578 51.9176 87.5402 51.9176C86.5436 51.9176 85.8261 51.474 85.3876 50.5869C84.9623 49.6997 84.7497 48.3219 84.7497 46.4536C84.7497 45.7546 84.7829 44.9548 84.8494 44.0542C84.7032 44.0408 84.2913 44.0072 83.6136 43.9534C83.2149 43.9131 83.0156 43.6913 83.0156 43.288C83.0156 42.8848 83.2083 42.6832 83.5937 42.6832C83.7 42.6832 83.9259 42.6966 84.2714 42.7235C84.5637 42.7504 84.7896 42.7638 84.949 42.7638C85.0421 41.7691 85.2015 40.519 85.4274 39.0136C85.454 38.8119 85.5204 38.6641 85.6267 38.57C85.7463 38.4625 85.9324 38.4087 86.1848 38.4087C86.4373 38.4087 86.6366 38.4759 86.7828 38.6103C86.929 38.7447 86.9888 38.9128 86.9622 39.1144L86.8625 39.7797C86.6632 41.339 86.537 42.3606 86.4838 42.8445L88.0784 42.8848C88.2777 42.8848 88.4239 42.9251 88.5169 43.0058C88.6232 43.0864 88.6764 43.2275 88.6764 43.4292C88.6764 43.6846 88.6232 43.8593 88.5169 43.9534C88.4239 44.034 88.2379 44.0811 87.9588 44.0945C87.5469 44.108 87.0154 44.1147 86.3642 44.1147C86.2978 44.9615 86.2646 45.7411 86.2646 46.4536C86.2646 47.7574 86.3642 48.779 86.5636 49.5183C86.7762 50.2576 87.1549 50.6272 87.6997 50.6272C87.992 50.6272 88.2246 50.5129 88.3973 50.2844C88.5701 50.0559 88.6697 49.7132 88.6963 49.2561C88.7096 49.0411 88.7494 48.8865 88.8159 48.7924C88.8956 48.6849 89.0684 48.6311 89.3341 48.6311Z" fill="#FAFAFA"/>
<path d="M77.4309 52.0181C76.5274 52.0181 75.7566 51.7963 75.1188 51.3527C74.481 50.8957 73.9827 50.3177 73.6239 49.6188C73.5309 49.4306 73.4844 49.3029 73.4844 49.2357C73.4844 49.0475 73.5641 48.8862 73.7236 48.7518C73.8963 48.6039 74.0823 48.53 74.2817 48.53C74.4145 48.53 74.5142 48.5703 74.5806 48.651C74.6604 48.7182 74.7667 48.8459 74.8996 49.034C75.2318 49.5448 75.5839 49.9548 75.956 50.264C76.328 50.5597 76.8197 50.7075 77.4309 50.7075C78.0023 50.7075 78.4741 50.5664 78.8461 50.2841C79.2315 50.0018 79.4242 49.6456 79.4242 49.2155C79.4242 48.9063 79.3179 48.6442 79.1053 48.4292C78.9059 48.2141 78.6535 48.0394 78.3478 47.9049C78.0555 47.7705 77.6303 47.6025 77.0722 47.4009C76.3679 47.1455 75.7965 46.917 75.358 46.7154C74.9328 46.5003 74.5674 46.2046 74.2617 45.8282C73.9561 45.4384 73.8033 44.9478 73.8033 44.3563C73.8033 43.8321 73.9428 43.3482 74.2219 42.9046C74.5142 42.4476 74.9261 42.0847 75.4577 41.8158C75.9892 41.547 76.6004 41.4126 77.2914 41.4126C77.9824 41.4126 78.5937 41.547 79.1252 41.8158C79.6567 42.0847 80.0686 42.4409 80.361 42.8845C80.6533 43.328 80.7995 43.8187 80.7995 44.3563C80.7995 44.6252 80.7463 44.8201 80.64 44.941C80.547 45.062 80.3743 45.1225 80.1218 45.1225C79.856 45.1225 79.6766 45.0755 79.5836 44.9814C79.5039 44.8738 79.4574 44.7394 79.4441 44.5781C79.3909 43.9464 79.1717 43.4826 78.7863 43.1869C78.401 42.8777 77.9027 42.7232 77.2914 42.7232C76.5739 42.7232 76.0623 42.8979 75.7566 43.2474C75.4643 43.5834 75.3181 43.9464 75.3181 44.3362C75.3181 44.7932 75.5108 45.1494 75.8962 45.4048C76.2948 45.6467 76.9061 45.9156 77.7299 46.2113C78.4342 46.4667 78.9989 46.7019 79.4242 46.917C79.8494 47.132 80.2082 47.4278 80.5005 47.8041C80.8061 48.1805 80.9589 48.651 80.9589 49.2155C80.9589 50.0892 80.6201 50.7747 79.9424 51.2721C79.2647 51.7694 78.4276 52.0181 77.4309 52.0181Z" fill="#FAFAFA"/>
<path d="M66.5816 51.998C65.492 51.998 64.5485 51.7628 63.7512 51.2923C62.9672 50.8084 62.3693 50.1767 61.9573 49.397C61.5587 48.604 61.3594 47.7437 61.3594 46.8162C61.3594 45.8619 61.572 44.9882 61.9972 44.1951C62.4224 43.3886 63.027 42.7501 63.811 42.2797C64.595 41.8092 65.4986 41.574 66.5218 41.574C67.4254 41.574 68.236 41.7622 68.9535 42.1385C69.6711 42.5015 70.2292 43.0122 70.6278 43.6709C71.0265 44.3295 71.2258 45.0823 71.2258 45.9291C71.2258 46.3323 71.1793 46.6213 71.0863 46.7961C70.9933 46.9574 70.7607 47.0447 70.3887 47.0582L62.7945 47.2195C62.7945 47.7303 62.9473 48.2545 63.2529 48.7922C63.5586 49.3298 63.9904 49.7801 64.5485 50.1431C65.1199 50.506 65.7777 50.6874 66.5218 50.6874C67.0799 50.6874 67.5583 50.6068 67.9569 50.4455C68.3556 50.2708 68.6678 50.0759 68.8937 49.8608C69.1196 49.6457 69.392 49.3433 69.711 48.9535C69.804 48.8325 69.9501 48.772 70.1495 48.772C70.3222 48.772 70.4817 48.8392 70.6278 48.9736C70.7873 49.1081 70.867 49.2626 70.867 49.4374C70.867 49.5718 70.8139 49.7129 70.7076 49.8608C70.2824 50.4522 69.7641 50.9563 69.1529 51.373C68.5549 51.7897 67.6978 51.998 66.5816 51.998ZM69.7309 45.8283C69.8638 45.8283 69.9302 45.7342 69.9302 45.546C69.9302 44.7395 69.6113 44.0876 68.9735 43.5902C68.3356 43.0794 67.5317 42.8241 66.5617 42.8241C65.8308 42.8241 65.1797 43.0122 64.6083 43.3886C64.0369 43.765 63.5918 44.2085 63.2729 44.7193C62.9539 45.2301 62.7945 45.6603 62.7945 46.0097L69.7309 45.8283Z" fill="#FAFAFA"/>
<path d="M57.8095 37.5416C58.0752 37.5416 58.2745 37.6155 58.4074 37.7634C58.5403 37.8978 58.6067 38.0927 58.6067 38.3481L58.5868 45.7074C58.5868 47.3338 58.5337 48.5772 58.4274 49.4375C58.3343 50.2977 58.1882 50.8892 57.9888 51.2118C57.8028 51.5209 57.5437 51.6755 57.2115 51.6755C56.8128 51.6755 56.3943 51.4672 55.9558 51.0505C55.5173 50.6203 55.0256 50.002 54.4808 49.1955C53.936 48.3756 53.1453 47.1389 52.1088 45.4856C51.1388 43.9264 50.4013 42.7637 49.8964 41.9975C49.4047 41.2179 48.9795 40.5794 48.6207 40.082C48.6207 40.9961 48.6274 41.7287 48.6406 42.2798L48.6606 44.9614L48.6805 51.0706C48.6805 51.2454 48.6074 51.4 48.4613 51.5344C48.3151 51.6554 48.1291 51.7158 47.9032 51.7158C47.6905 51.7158 47.5045 51.6554 47.3451 51.5344C47.1989 51.4 47.1258 51.2454 47.1258 51.0706V44.9412C47.1258 43.6643 47.1192 42.6696 47.1059 41.9572L47.0859 38.9529C47.0859 38.5228 47.1524 38.2069 47.2853 38.0053C47.4181 37.7902 47.6507 37.6827 47.9829 37.6827C48.3417 37.6827 48.7004 37.844 49.0592 38.1666C49.418 38.4892 49.7834 38.9328 50.1555 39.4973C50.5408 40.0619 51.099 40.9356 51.8298 42.1185C51.7235 41.9303 52.0756 42.5083 52.8862 43.8524C54.5339 46.5139 55.8495 48.4831 56.8328 49.7601C56.9657 48.7788 57.0321 47.4212 57.0321 45.6872V38.2473C57.0321 38.0322 57.0985 37.8642 57.2314 37.7432C57.3776 37.6088 57.5703 37.5416 57.8095 37.5416Z" fill="#FAFAFA"/>
<path d="M47.0687 22.1942L23.2969 2" stroke="#FAFAFA" stroke-width="2.03846" stroke-linecap="round"/>
<path d="M2.00159 22.1942L25.7734 2" stroke="#FAFAFA" stroke-width="2.03846" stroke-linecap="round"/>
<path d="M3.97656 17.6506V54.0001H15.8625" stroke="#FAFAFA" stroke-width="2.03846" stroke-linecap="round"/>
</svg>
