<svg width="90" height="56" viewBox="0 0 90 56" fill="none" xmlns="http://www.w3.org/2000/svg">
<path d="M42.4536 33.6309C42.4536 31.5093 42.0437 29.4085 41.2473 27.4485C40.4508 25.4884 39.2835 23.7075 37.8119 22.2073C36.3403 20.7071 34.5932 19.5171 32.6704 18.7053C30.7477 17.8934 28.6869 17.4755 26.6057 17.4755C24.5245 17.4755 22.4637 17.8934 20.541 18.7053C18.6182 19.5172 16.8712 20.7071 15.3996 22.2073C13.9279 23.7075 12.7606 25.4884 11.9642 27.4485C11.1677 29.4085 10.7578 31.5093 10.7578 33.6309" stroke="#F0F4F1" stroke-width="4.90038" stroke-linecap="round"/>
<path d="M42.4536 33.6309C42.4536 35.7524 42.0437 37.8532 41.2473 39.8132C40.4508 41.7733 39.2835 43.5542 37.8119 45.0544C36.3403 46.5546 34.5932 47.7446 32.6704 48.5565C30.7477 49.3683 28.6869 49.7862 26.6057 49.7862C24.5245 49.7862 22.4637 49.3683 20.541 48.5564C18.6182 47.7446 16.8712 46.5546 15.3996 45.0544C13.9279 43.5542 12.7606 41.7733 11.9642 39.8132C11.1677 37.8532 10.7578 35.7524 10.7578 33.6309" stroke="#1C474E" stroke-width="4.90038" stroke-linecap="round"/>
<ellipse cx="33.152" cy="31.9146" rx="3.66767" ry="3.73882" fill="#1C474E"/>
<ellipse cx="20.0583" cy="31.9146" rx="3.66767" ry="3.73882" fill="#1C474E"/>
<path d="M87.4233 22.8517C87.0778 22.8517 86.7855 22.7375 86.5463 22.509C86.3071 22.267 86.1875 21.9646 86.1875 21.6016C86.1875 21.2387 86.3071 20.943 86.5463 20.7145C86.7855 20.4725 87.0911 20.3516 87.4632 20.3516C87.8219 20.3516 88.1143 20.4658 88.3402 20.6943C88.5794 20.9228 88.699 21.2186 88.699 21.5815C88.699 21.9444 88.5727 22.2468 88.3202 22.4888C88.0811 22.7307 87.7821 22.8517 87.4233 22.8517ZM87.1243 34.1428C86.8851 34.1428 86.6924 34.0823 86.5463 33.9613C86.4134 33.8403 86.347 33.679 86.347 33.4774L86.5463 24.9083C86.5463 24.6798 86.6127 24.505 86.7456 24.3841C86.8918 24.2631 87.0844 24.2026 87.3236 24.2026C87.5628 24.2026 87.7489 24.2631 87.8817 24.3841C88.0279 24.505 88.101 24.6865 88.101 24.9285L87.9017 33.4774C87.8884 33.6925 87.8087 33.8605 87.6625 33.9815C87.5296 34.089 87.3502 34.1428 87.1243 34.1428Z" fill="#303233"/>
<path d="M77.8464 20.0495C78.843 20.0495 79.7666 20.2444 80.617 20.6342C81.4807 21.0105 82.1717 21.5549 82.69 22.2673C83.2082 22.9663 83.4673 23.7795 83.4673 24.707C83.4673 25.5538 83.2414 26.3066 82.7896 26.9652C82.3378 27.6104 81.7133 28.1078 80.916 28.4572C80.132 28.8067 79.235 28.9815 78.2251 28.9815C77.0824 28.9815 76.119 28.7731 75.335 28.3564L75.2752 33.639C75.2752 33.881 75.2021 34.0692 75.0559 34.2036C74.923 34.338 74.737 34.4052 74.4978 34.4052C74.2453 34.4052 74.046 34.338 73.8999 34.2036C73.767 34.0692 73.7005 33.8877 73.7005 33.6592C73.7005 33.0409 73.7138 32.1268 73.7404 30.9171C73.767 29.6267 73.7803 28.6051 73.7803 27.8524C73.7803 26.4679 73.7537 24.9691 73.7005 23.3561C73.6872 23.262 73.6806 23.1209 73.6806 22.9327L73.6208 22.973C73.4879 23.0402 73.375 23.0738 73.282 23.0738C73.0959 23.0738 72.9431 22.9865 72.8235 22.8117C72.7172 22.6235 72.6641 22.4085 72.6641 22.1665C72.6641 22.0052 72.7172 21.8775 72.8235 21.7834C72.9298 21.6759 73.0893 21.5684 73.3019 21.4608L73.6407 21.2592V20.9366C73.6407 20.6275 73.7072 20.3989 73.8401 20.2511C73.9729 20.1032 74.1789 20.0293 74.458 20.0293C74.6971 20.0293 74.8832 20.0696 75.0161 20.1503C75.1489 20.2309 75.2154 20.3385 75.2154 20.4729V20.5132C76.0658 20.204 76.9428 20.0495 77.8464 20.0495ZM77.9461 27.6507C78.7035 27.6507 79.3679 27.523 79.9393 27.2677C80.524 27.0123 80.9758 26.6561 81.2947 26.199C81.6136 25.742 81.7731 25.2245 81.7731 24.6465C81.7731 24.0282 81.5937 23.4771 81.2349 22.9932C80.8761 22.5093 80.3977 22.1329 79.7998 21.8641C79.2151 21.5953 78.5706 21.4608 77.8664 21.4608C77.1355 21.4608 76.2585 21.6961 75.2353 22.1665C75.2619 23.1074 75.2752 23.7258 75.2752 24.0215C75.2752 24.3172 75.2885 24.7877 75.315 25.4329C75.3416 26.2259 75.3483 26.7502 75.335 27.0055C76.0791 27.4357 76.9495 27.6507 77.9461 27.6507Z" fill="#303233"/>
<path d="M70.1526 32.9538C70.3386 32.9807 70.4781 33.0344 70.5712 33.1151C70.6642 33.1957 70.7107 33.3436 70.7107 33.5587C70.7107 33.7603 70.6575 33.9216 70.5512 34.0426C70.4582 34.1635 70.3253 34.224 70.1526 34.224C69.6078 34.224 69.2025 34.1367 68.9367 33.9619C68.6842 33.7872 68.465 33.4579 68.279 32.974C67.681 33.9552 66.6179 34.4458 65.0898 34.4458C64.0135 34.4458 63.1431 34.2039 62.4787 33.72C61.8143 33.2361 61.3359 32.6245 61.0436 31.8852C60.7645 31.1324 60.625 30.3394 60.625 29.506C60.625 28.6054 60.8044 27.7586 61.1632 26.9655C61.5219 26.1725 62.0468 25.534 62.7378 25.0501C63.4421 24.5662 64.2792 24.3242 65.2493 24.3242C65.9137 24.3242 66.4917 24.4586 66.9834 24.7275C67.475 24.9963 67.8604 25.3727 68.1394 25.8566L68.2192 25.1912C68.2457 24.6939 68.4716 24.4452 68.8969 24.4452C69.1626 24.4452 69.3619 24.5124 69.4948 24.6468C69.641 24.7678 69.7008 24.9157 69.6742 25.0904L69.6144 25.5945C69.5214 26.159 69.455 26.7437 69.4151 27.3486C69.3752 27.8594 69.3553 28.5449 69.3553 29.4052V30.7964C69.3553 31.3744 69.3686 31.8045 69.3952 32.0868C69.435 32.3556 69.5081 32.564 69.6144 32.7118C69.7207 32.8597 69.9001 32.9404 70.1526 32.9538ZM67.8405 30.7762C67.8537 30.1445 67.8604 29.3313 67.8604 28.3366C67.8604 27.6779 67.7209 27.147 67.4418 26.7437C67.1628 26.327 66.8239 26.0313 66.4253 25.8566C66.0266 25.6818 65.6479 25.5945 65.2891 25.5945C64.5849 25.5945 63.9935 25.7961 63.5152 26.1993C63.0501 26.6026 62.7046 27.1067 62.4787 27.7115C62.2661 28.3164 62.1598 28.9146 62.1598 29.506C62.1598 30.4469 62.3857 31.2937 62.8375 32.0465C63.3026 32.7858 64.06 33.1554 65.1097 33.1554C65.8937 33.1554 66.5382 32.9538 67.0432 32.5505C67.5614 32.1338 67.8272 31.5424 67.8405 30.7762Z" fill="#303233"/>
<path d="M57.5761 27.1873C58.1741 27.1873 58.473 27.4293 58.473 27.9132C58.473 28.3837 58.1741 28.6189 57.5761 28.6189H57.2572L57.3967 33.5184C57.41 33.7469 57.3502 33.9351 57.2173 34.0829C57.0844 34.2174 56.8984 34.2846 56.6592 34.2846C56.4067 34.2846 56.2141 34.2241 56.0812 34.1031C55.9483 33.9687 55.8752 33.7872 55.8619 33.5587L55.7224 28.5786L49.1448 28.4777L48.7262 33.8208C48.6863 34.1972 48.4339 34.3854 47.9688 34.3854C47.4107 34.3854 47.1516 34.1569 47.1914 33.6998L47.61 28.4374H47.2313C47.0054 28.4374 46.8127 28.3769 46.6532 28.256C46.4938 28.135 46.4141 27.9602 46.4141 27.7317C46.4141 27.5032 46.4938 27.3285 46.6532 27.2075C46.8127 27.0865 47.0187 27.026 47.2711 27.026H47.7296L48.2478 20.4127C48.2611 20.1708 48.3408 19.996 48.487 19.8885C48.6465 19.7675 48.8325 19.707 49.0451 19.707C49.3109 19.707 49.5036 19.7877 49.6231 19.949C49.7427 20.0968 49.7959 20.285 49.7826 20.5135L49.2644 27.0664L55.6825 27.1672L55.4832 20.4732C55.4832 20.2313 55.5496 20.0431 55.6825 19.9087C55.8154 19.7742 56.0014 19.707 56.2406 19.707C56.4798 19.707 56.6658 19.7742 56.7987 19.9087C56.9449 20.0431 57.018 20.2111 57.018 20.4127L57.2173 27.1873H57.5761Z" fill="#303233"/>
<path d="M89.3341 48.6306C89.5733 48.6306 89.7394 48.6911 89.8324 48.8121C89.9387 48.9196 89.9919 49.1212 89.9919 49.417C89.9919 50.1159 89.7593 50.7074 89.2943 51.1913C88.8425 51.6752 88.2578 51.9171 87.5402 51.9171C86.5436 51.9171 85.8261 51.4735 85.3876 50.5864C84.9623 49.6992 84.7497 48.3215 84.7497 46.4531C84.7497 45.7541 84.7829 44.9543 84.8494 44.0537C84.7032 44.0403 84.2913 44.0067 83.6136 43.9529C83.2149 43.9126 83.0156 43.6908 83.0156 43.2875C83.0156 42.8843 83.2083 42.6827 83.5937 42.6827C83.7 42.6827 83.9259 42.6961 84.2714 42.723C84.5637 42.7499 84.7896 42.7633 84.949 42.7633C85.0421 41.7686 85.2015 40.5186 85.4274 39.0131C85.454 38.8115 85.5204 38.6636 85.6267 38.5695C85.7463 38.462 85.9324 38.4082 86.1848 38.4082C86.4373 38.4082 86.6366 38.4754 86.7828 38.6098C86.929 38.7442 86.9888 38.9123 86.9622 39.1139L86.8625 39.7793C86.6632 41.3385 86.537 42.3601 86.4838 42.844L88.0784 42.8843C88.2777 42.8843 88.4239 42.9246 88.5169 43.0053C88.6232 43.0859 88.6764 43.2271 88.6764 43.4287C88.6764 43.6841 88.6232 43.8588 88.5169 43.9529C88.4239 44.0336 88.2379 44.0806 87.9588 44.094C87.5469 44.1075 87.0154 44.1142 86.3642 44.1142C86.2978 44.961 86.2646 45.7407 86.2646 46.4531C86.2646 47.7569 86.3642 48.7785 86.5636 49.5178C86.7762 50.2571 87.1549 50.6267 87.6997 50.6267C87.992 50.6267 88.2246 50.5125 88.3973 50.2839C88.5701 50.0554 88.6697 49.7127 88.6963 49.2557C88.7096 49.0406 88.7494 48.886 88.8159 48.7919C88.8956 48.6844 89.0684 48.6306 89.3341 48.6306Z" fill="#303233"/>
<path d="M77.4309 52.0176C76.5274 52.0176 75.7566 51.7958 75.1188 51.3523C74.481 50.8952 73.9827 50.3172 73.6239 49.6183C73.5309 49.4301 73.4844 49.3024 73.4844 49.2352C73.4844 49.047 73.5641 48.8857 73.7236 48.7513C73.8963 48.6034 74.0823 48.5295 74.2817 48.5295C74.4145 48.5295 74.5142 48.5698 74.5806 48.6505C74.6604 48.7177 74.7667 48.8454 74.8996 49.0336C75.2318 49.5443 75.5839 49.9543 75.956 50.2635C76.328 50.5592 76.8197 50.707 77.4309 50.707C78.0023 50.707 78.4741 50.5659 78.8461 50.2836C79.2315 50.0014 79.4242 49.6452 79.4242 49.215C79.4242 48.9059 79.3179 48.6437 79.1053 48.4287C78.9059 48.2136 78.6535 48.0389 78.3478 47.9045C78.0555 47.77 77.6303 47.602 77.0722 47.4004C76.3679 47.145 75.7965 46.9165 75.358 46.7149C74.9328 46.4998 74.5674 46.2041 74.2617 45.8277C73.9561 45.4379 73.8033 44.9473 73.8033 44.3558C73.8033 43.8316 73.9428 43.3477 74.2219 42.9041C74.5142 42.4471 74.9261 42.0842 75.4577 41.8154C75.9892 41.5465 76.6004 41.4121 77.2914 41.4121C77.9824 41.4121 78.5937 41.5465 79.1252 41.8154C79.6567 42.0842 80.0686 42.4404 80.361 42.884C80.6533 43.3276 80.7995 43.8182 80.7995 44.3558C80.7995 44.6247 80.7463 44.8196 80.64 44.9406C80.547 45.0615 80.3743 45.122 80.1218 45.122C79.856 45.122 79.6766 45.075 79.5836 44.9809C79.5039 44.8733 79.4574 44.7389 79.4441 44.5776C79.3909 43.9459 79.1717 43.4821 78.7863 43.1864C78.401 42.8773 77.9027 42.7227 77.2914 42.7227C76.5739 42.7227 76.0623 42.8974 75.7566 43.2469C75.4643 43.5829 75.3181 43.9459 75.3181 44.3357C75.3181 44.7927 75.5108 45.1489 75.8962 45.4043C76.2948 45.6462 76.9061 45.9151 77.7299 46.2108C78.4342 46.4662 78.9989 46.7014 79.4242 46.9165C79.8494 47.1316 80.2082 47.4273 80.5005 47.8036C80.8061 48.18 80.9589 48.6505 80.9589 49.215C80.9589 50.0887 80.6201 50.7743 79.9424 51.2716C79.2647 51.7689 78.4276 52.0176 77.4309 52.0176Z" fill="#303233"/>
<path d="M66.5816 51.9983C65.492 51.9983 64.5485 51.763 63.7512 51.2926C62.9672 50.8087 62.3693 50.1769 61.9573 49.3973C61.5587 48.6042 61.3594 47.744 61.3594 46.8165C61.3594 45.8621 61.572 44.9884 61.9972 44.1954C62.4224 43.3888 63.027 42.7504 63.811 42.2799C64.595 41.8094 65.4986 41.5742 66.5218 41.5742C67.4254 41.5742 68.236 41.7624 68.9535 42.1388C69.6711 42.5017 70.2292 43.0125 70.6278 43.6711C71.0265 44.3298 71.2258 45.0825 71.2258 45.9293C71.2258 46.3326 71.1793 46.6216 71.0863 46.7963C70.9933 46.9576 70.7607 47.045 70.3887 47.0584L62.7945 47.2197C62.7945 47.7305 62.9473 48.2547 63.2529 48.7924C63.5586 49.3301 63.9904 49.7804 64.5485 50.1433C65.1199 50.5062 65.7777 50.6877 66.5218 50.6877C67.0799 50.6877 67.5583 50.607 67.9569 50.4457C68.3556 50.271 68.6678 50.0761 68.8937 49.861C69.1196 49.646 69.392 49.3435 69.711 48.9537C69.804 48.8327 69.9501 48.7723 70.1495 48.7723C70.3222 48.7723 70.4817 48.8395 70.6278 48.9739C70.7873 49.1083 70.867 49.2629 70.867 49.4376C70.867 49.572 70.8139 49.7132 70.7076 49.861C70.2824 50.4525 69.7641 50.9565 69.1529 51.3732C68.5549 51.7899 67.6978 51.9983 66.5816 51.9983ZM69.7309 45.8285C69.8638 45.8285 69.9302 45.7344 69.9302 45.5462C69.9302 44.7397 69.6113 44.0878 68.9735 43.5905C68.3356 43.0797 67.5317 42.8243 66.5617 42.8243C65.8308 42.8243 65.1797 43.0125 64.6083 43.3888C64.0369 43.7652 63.5918 44.2088 63.2729 44.7196C62.9539 45.2304 62.7945 45.6605 62.7945 46.01L69.7309 45.8285Z" fill="#303233"/>
<path d="M57.8095 37.541C58.0752 37.541 58.2745 37.6149 58.4074 37.7628C58.5403 37.8972 58.6067 38.0921 58.6067 38.3475L58.5868 45.7069C58.5868 47.3333 58.5337 48.5767 58.4274 49.4369C58.3343 50.2972 58.1882 50.8886 57.9888 51.2112C57.8028 51.5204 57.5437 51.675 57.2115 51.675C56.8128 51.675 56.3943 51.4666 55.9558 51.0499C55.5173 50.6198 55.0256 50.0015 54.4808 49.195C53.936 48.375 53.1453 47.1384 52.1088 45.4851C51.1388 43.9258 50.4013 42.7631 49.8964 41.9969C49.4047 41.2173 48.9795 40.5788 48.6207 40.0815C48.6207 40.9955 48.6274 41.7281 48.6406 42.2792L48.6606 44.9608L48.6805 51.0701C48.6805 51.2448 48.6074 51.3994 48.4613 51.5338C48.3151 51.6548 48.1291 51.7153 47.9032 51.7153C47.6905 51.7153 47.5045 51.6548 47.3451 51.5338C47.1989 51.3994 47.1258 51.2448 47.1258 51.0701V44.9407C47.1258 43.6637 47.1192 42.669 47.1059 41.9566L47.0859 38.9524C47.0859 38.5223 47.1524 38.2064 47.2853 38.0048C47.4181 37.7897 47.6507 37.6822 47.9829 37.6822C48.3417 37.6822 48.7004 37.8435 49.0592 38.1661C49.418 38.4887 49.7834 38.9322 50.1555 39.4968C50.5408 40.0613 51.099 40.935 51.8298 42.1179C51.7235 41.9297 52.0756 42.5077 52.8862 43.8519C54.5339 46.5134 55.8495 48.4826 56.8328 49.7595C56.9657 48.7783 57.0321 47.4207 57.0321 45.6867V38.2467C57.0321 38.0316 57.0985 37.8636 57.2314 37.7426C57.3776 37.6082 57.5703 37.541 57.8095 37.541Z" fill="#303233"/>
<path d="M47.0687 22.1942L23.2969 2" stroke="#303233" stroke-width="2.03846" stroke-linecap="round"/>
<path d="M2.00159 22.1942L25.7734 2" stroke="#303233" stroke-width="2.03846" stroke-linecap="round"/>
<path d="M3.97656 17.6504V53.9999H15.8625" stroke="#303233" stroke-width="2.03846" stroke-linecap="round"/>
</svg>
