<svg width="80" height="80" viewBox="0 0 80 80" fill="none" xmlns="http://www.w3.org/2000/svg">
<rect x="4" y="4" width="72" height="72" rx="16" fill="#510301"/>
<path d="M54.804 58.9034V32.7216H62.0653V58.9034H54.804ZM58.4517 29.3466C57.3722 29.3466 56.446 28.9886 55.6733 28.2727C54.9119 27.5455 54.5312 26.6761 54.5312 25.6648C54.5312 24.6648 54.9119 23.8068 55.6733 23.0909C56.446 22.3636 57.3722 22 58.4517 22C59.5313 22 60.4517 22.3636 61.2131 23.0909C61.9858 23.8068 62.3722 24.6648 62.3722 25.6648C62.3722 26.6761 61.9858 27.5455 61.2131 28.2727C60.4517 28.9886 59.5313 29.3466 58.4517 29.3466Z" fill="#FBA82C"/>
<path d="M24.9091 58.9034H17L29.0511 23.9944H38.5625L50.5966 58.9034H42.6875L33.9432 31.9716H33.6705L24.9091 58.9034ZM24.4148 45.1819H43.0966V50.9432H24.4148V45.1819Z" fill="#FBA82C"/>
</svg>
