<svg width="48" height="48" viewBox="0 0 48 48" fill="none" xmlns="http://www.w3.org/2000/svg">
<g clip-path="url(#clip0_1034_483)">
<path d="M37.0331 13.3129C37.0331 11.9852 35.957 10.9131 34.6342 10.9131C33.3114 10.9131 32.2344 11.9852 32.2344 13.3129C32.2344 14.6358 33.3114 15.7078 34.6342 15.7078C35.957 15.7078 37.0331 14.6358 37.0331 13.3129Z" fill="white"/>
<path d="M40.2323 32.0456C40.1434 33.9933 39.8177 35.0515 39.5473 35.7544C39.1839 36.6863 38.7506 37.3527 38.0477 38.0515C37.3527 38.7505 36.6864 39.1829 35.7545 39.5422C35.0516 39.8166 33.9894 40.1434 32.0417 40.2362C29.9361 40.329 29.3122 40.3488 23.9726 40.3488C18.6379 40.3488 18.009 40.329 15.9034 40.2362C13.9557 40.1434 12.8984 39.8166 12.1955 39.5422C11.2587 39.1829 10.5973 38.7505 9.8984 38.0515C9.19452 37.3527 8.76118 36.6863 8.40283 35.7544C8.13229 35.0515 7.80164 33.9933 7.71768 32.0456C7.61506 29.9399 7.59626 29.3062 7.59626 23.9774C7.59626 18.6378 7.61506 18.0089 7.71768 15.9032C7.80164 13.9556 8.13229 12.8984 8.40283 12.1895C8.76118 11.2586 9.19452 10.5962 9.8984 9.89728C10.5973 9.1994 11.2587 8.76597 12.1955 8.40274C12.8984 8.12732 13.9557 7.80548 15.9034 7.71271C18.009 7.61986 18.6379 7.59617 23.9726 7.59617C29.3122 7.59617 29.9361 7.61986 32.0417 7.71271C33.9894 7.80548 35.0516 8.12732 35.7545 8.40274C36.6864 8.76597 37.3527 9.1994 38.0477 9.89728C38.7506 10.5962 39.1839 11.2586 39.5473 12.1895C39.8177 12.8984 40.1434 13.9556 40.2323 15.9032C40.33 18.0089 40.3537 18.6378 40.3537 23.9774C40.3537 29.3062 40.33 29.9399 40.2323 32.0456ZM43.8286 15.7394C43.7309 13.611 43.3952 12.1569 42.8967 10.8904C42.3894 9.57647 41.7091 8.46293 40.5956 7.3494C39.487 6.24083 38.3735 5.56064 37.0596 5.04733C35.7881 4.55372 34.3389 4.2141 32.2095 4.12133C30.0801 4.01864 29.4001 3.99991 23.9726 3.99991C18.55 3.99991 17.8649 4.01864 15.7356 4.12133C13.6112 4.2141 12.1629 4.55372 10.8856 5.04733C9.57656 5.56064 8.46303 6.24083 7.35445 7.3494C6.24091 8.46293 5.56073 9.57647 5.04838 10.8904C4.55477 12.1569 4.21915 13.611 4.11646 15.7394C4.02369 17.8688 4 18.5499 4 23.9774C4 29.4 4.02369 30.0801 4.11646 32.2094C4.21915 34.3339 4.55477 35.787 5.04838 37.0595C5.56073 38.3685 6.24091 39.487 7.35445 40.5955C8.46303 41.7041 9.57656 42.3892 10.8856 42.9016C12.1629 43.3951 13.6112 43.7308 15.7356 43.8285C17.8649 43.9263 18.55 43.95 23.9726 43.95C29.4001 43.95 30.0801 43.9263 32.2095 43.8285C34.3389 43.7308 35.7881 43.3951 37.0596 42.9016C38.3735 42.3892 39.487 41.7041 40.5956 40.5955C41.7091 39.487 42.3894 38.3685 42.8967 37.0595C43.3952 35.787 43.7309 34.3339 43.8286 32.2094C43.9264 30.0801 43.95 29.4 43.95 23.9774C43.95 18.5499 43.9264 17.8688 43.8286 15.7394Z" fill="white"/>
<path d="M23.9725 30.6301C20.2973 30.6301 17.315 27.6527 17.315 23.9775C17.315 20.2963 20.2973 17.3151 23.9725 17.3151C27.6489 17.3151 30.635 20.2963 30.635 23.9775C30.635 27.6527 27.6489 30.6301 23.9725 30.6301ZM23.9725 13.7139C18.3071 13.7139 13.7188 18.3121 13.7188 23.9775C13.7188 29.638 18.3071 34.2313 23.9725 34.2313C29.6379 34.2313 34.2313 29.638 34.2313 23.9775C34.2313 18.3121 29.6379 13.7139 23.9725 13.7139Z" fill="white"/>
</g>
<defs>
<clipPath id="clip0_1034_483">
<rect width="40" height="40" fill="white" transform="translate(4 4)"/>
</clipPath>
</defs>
</svg>
