<svg width="24" height="23" viewBox="0 0 24 23" fill="none" xmlns="http://www.w3.org/2000/svg">
<path d="M13.9614 13.4652V22.1732H8.39844V6.6923H13.6792V9.63529H13.8405C14.1764 8.65429 14.7676 7.88495 15.6142 7.32726C16.4674 6.76957 17.4618 6.49072 18.5972 6.49072C19.6924 6.49072 20.643 6.74269 21.4493 7.24663C22.2622 7.74384 22.8904 8.4292 23.3338 9.30269C23.784 10.1762 24.0057 11.174 23.999 12.2961V22.1732H18.436V13.4652C18.4427 12.6992 18.2479 12.0979 17.8515 11.6611C17.4618 11.2244 16.9176 11.006 16.2189 11.006C15.762 11.006 15.3622 11.1068 15.0196 11.3084C14.6837 11.5032 14.425 11.7854 14.2436 12.155C14.0622 12.5178 13.9681 12.9546 13.9614 13.4652Z" fill="#3D595D"/>
<path d="M0 22.1732V6.69228H5.56298V22.1732H0ZM2.78149 5.07968C2.02901 5.07968 1.38403 4.83107 0.84654 4.33386C0.309054 3.83664 0.0403114 3.23863 0.0403114 2.53984C0.0403114 1.84105 0.309054 1.24304 0.84654 0.745826C1.38403 0.248609 2.02901 0 2.78149 0C3.54069 0 4.18567 0.248609 4.71644 0.745826C5.25392 1.24304 5.52267 1.84105 5.52267 2.53984C5.52267 3.23863 5.25392 3.83664 4.71644 4.33386C4.18567 4.83107 3.54069 5.07968 2.78149 5.07968Z" fill="#3D595D"/>
</svg>
