<svg width="48" height="48" viewBox="0 0 48 48" fill="none" xmlns="http://www.w3.org/2000/svg">
<path d="M27.2724 28.442V42.9554H18V17.1538H26.802V22.0588H27.0708C27.6307 20.4238 28.6162 19.1416 30.0272 18.2121C31.4494 17.2826 33.1068 16.8179 34.9994 16.8179C36.8247 16.8179 38.4093 17.2378 39.7531 18.0777C41.1082 18.9064 42.1552 20.0487 42.8943 21.5045C43.6446 22.9603 44.0142 24.6233 44.003 26.4935V42.9554H34.7306V28.442C34.7418 27.1654 34.417 26.1631 33.7563 25.4352C33.1068 24.7073 32.1997 24.3433 31.0351 24.3433C30.2736 24.3433 29.6073 24.5113 29.0361 24.8473C28.4762 25.172 28.0451 25.6424 27.7427 26.2583C27.4404 26.863 27.2836 27.5909 27.2724 28.442Z" fill="white"/>
<path d="M4 42.9554V17.1538H13.2724V42.9554H4ZM8.63619 14.4661C7.38196 14.4661 6.3069 14.0518 5.41101 13.2231C4.51513 12.3944 4.06719 11.3977 4.06719 10.2331C4.06719 9.06842 4.51513 8.07174 5.41101 7.24304C6.3069 6.41435 7.38196 6 8.63619 6C9.90162 6 10.9767 6.41435 11.8614 7.24304C12.7572 8.07174 13.2052 9.06842 13.2052 10.2331C13.2052 11.3977 12.7572 12.3944 11.8614 13.2231C10.9767 14.0518 9.90162 14.4661 8.63619 14.4661Z" fill="white"/>
</svg>
