<svg width="24" height="24" viewBox="0 0 24 24" fill="none" xmlns="http://www.w3.org/2000/svg">
<path d="M5 4.00006C5 3.46963 5.21071 2.96092 5.58579 2.58585C5.96086 2.21077 6.46957 2.00006 7 2.00006H19C19.5304 2.00006 20.0391 2.21077 20.4142 2.58585C20.7893 2.96092 21 3.46963 21 4.00006V20.0001C21 20.5305 20.7893 21.0392 20.4142 21.4143C20.0391 21.7893 19.5304 22.0001 19 22.0001H16.6M8 18.0001H8.01M5 8.00006H11C12.1046 8.00006 13 8.89549 13 10.0001V20.0001C13 21.1046 12.1046 22.0001 11 22.0001H5C3.89543 22.0001 3 21.1046 3 20.0001V10.0001C3 8.89549 3.89543 8.00006 5 8.00006Z" stroke="#1C474E" stroke-width="2" stroke-linecap="round" stroke-linejoin="round"/>
</svg>
