<svg width="32" height="33" viewBox="0 0 32 33" fill="none" xmlns="http://www.w3.org/2000/svg">
<path d="M6.66667 5.83317C6.66667 5.12593 6.94762 4.44765 7.44772 3.94755C7.94781 3.44746 8.62609 3.1665 9.33333 3.1665H25.3333C26.0406 3.1665 26.7189 3.44746 27.219 3.94755C27.719 4.44765 28 5.12593 28 5.83317V27.1665C28 27.8737 27.719 28.552 27.219 29.0521C26.7189 29.5522 26.0406 29.8332 25.3333 29.8332H22.1333M10.6667 24.4998H10.68M6.66667 11.1665H14.6667C16.1394 11.1665 17.3333 12.3604 17.3333 13.8332V27.1665C17.3333 28.6393 16.1394 29.8332 14.6667 29.8332H6.66667C5.19391 29.8332 4 28.6393 4 27.1665V13.8332C4 12.3604 5.19391 11.1665 6.66667 11.1665Z" stroke="white" stroke-width="2" stroke-linecap="round" stroke-linejoin="round"/>
</svg>
