<svg width="80" height="80" viewBox="0 0 80 80" fill="none" xmlns="http://www.w3.org/2000/svg">
<rect x="4" y="4" width="72" height="72" rx="16" fill="#200058"/>
<path d="M66.7557 38.2839L60.108 38.693C59.9943 38.1248 59.75 37.6134 59.375 37.1589C59 36.693 58.5057 36.3236 57.892 36.0509C57.2898 35.7668 56.5682 35.6248 55.7273 35.6248C54.6023 35.6248 53.6534 35.8634 52.8807 36.3407C52.108 36.8066 51.7216 37.4316 51.7216 38.2157C51.7216 38.8407 51.9716 39.3691 52.4716 39.8009C52.9716 40.2327 53.8295 40.5793 55.0455 40.8407L59.7841 41.7952C62.3295 42.318 64.2273 43.1589 65.4773 44.318C66.7273 45.477 67.3523 46.9998 67.3523 48.8861C67.3523 50.6021 66.8466 52.1077 65.8352 53.4032C64.8352 54.6986 63.4602 55.71 61.7102 56.4373C59.9716 57.1532 57.9659 57.5111 55.6932 57.5111C52.2273 57.5111 49.4659 56.7896 47.4091 55.3464C45.3636 53.8918 44.1648 51.9146 43.8125 49.4146L50.9545 49.0396C51.1705 50.0964 51.6932 50.9032 52.5227 51.46C53.3523 52.0055 54.4148 52.2782 55.7102 52.2782C56.983 52.2782 58.0057 52.0339 58.7784 51.5452C59.5625 51.0452 59.9602 50.4032 59.9716 49.6191C59.9602 48.96 59.6818 48.4202 59.1364 47.9998C58.5909 47.568 57.75 47.2384 56.6136 47.0111L52.0795 46.1077C49.5227 45.5964 47.6193 44.71 46.3693 43.4486C45.1307 42.1873 44.5114 40.5793 44.5114 38.6248C44.5114 36.943 44.9659 35.4941 45.875 34.2782C46.7955 33.0623 48.0852 32.1248 49.7443 31.4657C51.4148 30.8066 53.3693 30.4771 55.608 30.4771C58.9148 30.4771 61.517 31.1759 63.4148 32.5736C65.3239 33.9714 66.4375 35.8748 66.7557 38.2839Z" fill="#34C2FE"/>
<path d="M14.0312 56.9999V22.0908H27.804C30.4517 22.0908 32.7074 22.5965 34.571 23.6079C36.4347 24.6079 37.8551 25.9999 38.8324 27.784C39.821 29.5567 40.3153 31.6022 40.3153 33.9204C40.3153 36.2385 39.8153 38.284 38.8153 40.0567C37.8153 41.8295 36.3665 43.2101 34.4688 44.1988C32.5824 45.1874 30.2983 45.6817 27.6165 45.6817H18.8381V39.767H26.4233C27.8438 39.767 29.0142 39.5226 29.9347 39.034C30.8665 38.534 31.5597 37.8465 32.0142 36.9715C32.4801 36.0851 32.7131 35.0681 32.7131 33.9204C32.7131 32.7613 32.4801 31.7499 32.0142 30.8863C31.5597 30.0113 30.8665 29.3351 29.9347 28.8579C29.0028 28.3692 27.821 28.1249 26.3892 28.1249H21.4119V56.9999H14.0312Z" fill="#34C2FE"/>
</svg>
