<svg width="33" height="33" viewBox="0 0 33 33" fill="none" xmlns="http://www.w3.org/2000/svg">
<path d="M21.3646 3.16602V5.83268M23.9179 29.8327C23.9179 27.7109 23.0751 25.6761 21.5748 24.1758C20.0745 22.6755 18.0396 21.8327 15.9179 21.8327C13.7962 21.8327 11.7614 22.6755 10.2611 24.1758C8.76077 25.6761 7.91792 27.7109 7.91792 29.8327M10.6979 3.16602V5.83268M21.3646 16.4993C21.3646 19.4449 18.9768 21.8327 16.0313 21.8327C13.0857 21.8327 10.6979 19.4449 10.6979 16.4993C10.6979 13.5538 13.0857 11.166 16.0313 11.166C18.9768 11.166 21.3646 13.5538 21.3646 16.4993ZM6.69792 5.83268H25.3646C26.8373 5.83268 28.0313 7.02659 28.0313 8.49935V27.166C28.0313 28.6388 26.8373 29.8327 25.3646 29.8327H6.69792C5.22516 29.8327 4.03125 28.6388 4.03125 27.166V8.49935C4.03125 7.02659 5.22516 5.83268 6.69792 5.83268Z" stroke="#031619" stroke-width="2" stroke-linecap="round" stroke-linejoin="round"/>
</svg>
