<svg width="24" height="24" viewBox="0 0 24 24" fill="none" xmlns="http://www.w3.org/2000/svg">
<g clip-path="url(#clip0_1160_178)">
<path d="M12 24C5.383 24 0 18.617 0 12C0 5.383 5.383 0 12 0C18.617 0 24 5.383 24 12C24 18.617 18.617 24 12 24ZM12 1.5C6.21 1.5 1.5 6.21 1.5 12C1.5 17.79 6.21 22.5 12 22.5C17.79 22.5 22.5 17.79 22.5 12C22.5 6.21 17.79 1.5 12 1.5Z" fill="white"/>
<path d="M9.55553 18.1301C9.45853 18.1301 9.36153 18.1111 9.26853 18.0731C8.98853 17.9571 8.80553 17.6831 8.80553 17.3801V14.4451C8.80553 14.2461 8.88453 14.0551 9.02553 13.9151L9.46553 13.4741L7.89753 14.1551C7.66953 14.2551 7.40553 14.2341 7.19553 14.0991L4.26053 12.2281C4.02253 12.0761 3.89053 11.8041 3.91753 11.5231C3.94453 11.2421 4.12753 11.0001 4.39053 10.8971L17.1085 5.92106C17.3615 5.82106 17.6485 5.86706 17.8585 6.04006C18.0685 6.21306 18.1685 6.48606 18.1205 6.75306L16.1635 17.5141C16.1205 17.7461 15.9725 17.9451 15.7605 18.0511C15.5495 18.1561 15.3015 18.1561 15.0905 18.0511L11.6605 16.3361L10.0865 17.9101C9.94153 18.0541 9.75053 18.1301 9.55553 18.1301ZM11.5115 14.6741C11.6255 14.6741 11.7405 14.7001 11.8465 14.7531L14.8665 16.2621L16.4035 7.80706L6.31153 11.7571L7.66553 12.6211L12.4825 10.5311C12.8125 10.3881 13.1985 10.5001 13.4015 10.7971C13.6035 11.0951 13.5665 11.4941 13.3115 11.7491L10.3045 14.7561V15.5691L10.9805 14.8931C11.1245 14.7501 11.3165 14.6741 11.5115 14.6741Z" fill="white"/>
</g>
<defs>
<clipPath id="clip0_1160_178">
<rect width="24" height="24" fill="white"/>
</clipPath>
</defs>
</svg>
