<svg width="32" height="32" viewBox="0 0 32 32" fill="none" xmlns="http://www.w3.org/2000/svg">
<path d="M19.6018 8.39999C19.3575 8.64923 19.2206 8.98432 19.2206 9.33333C19.2206 9.68233 19.3575 10.0174 19.6018 10.2667L21.7351 12.4C21.9843 12.6443 22.3194 12.7811 22.6684 12.7811C23.0174 12.7811 23.3525 12.6443 23.6018 12.4L28.6284 7.37333C29.2989 8.85491 29.5019 10.5056 29.2104 12.1055C28.9189 13.7054 28.1467 15.1785 26.9968 16.3284C25.8469 17.4783 24.3738 18.2504 22.774 18.5419C21.1741 18.8334 19.5233 18.6304 18.0418 17.96L8.82843 27.1733C8.29799 27.7038 7.57857 28.0018 6.82843 28.0018C6.07828 28.0018 5.35886 27.7038 4.82843 27.1733C4.29799 26.6429 4 25.9235 4 25.1733C4 24.4232 4.29799 23.7038 4.82843 23.1733L14.0418 13.96C13.3713 12.4784 13.1683 10.8277 13.4598 9.2278C13.7513 7.62792 14.5235 6.15487 15.6734 5.00496C16.8233 3.85504 18.2964 3.08289 19.8962 2.79138C21.4961 2.49988 23.1468 2.70288 24.6284 3.37333L19.6018 8.39999Z" stroke="#1C474E" stroke-width="2" stroke-linecap="round" stroke-linejoin="round"/>
</svg>
